<?xml version="1.0" encoding="UTF-8"?>
<svg xmlns="http://www.w3.org/2000/svg" viewBox="0 0 1050 700" width="1050" height="700">
<defs>
  <pattern id="hazard" patternUnits="userSpaceOnUse" width="24" height="24" patternTransform="rotate(45)">
    <rect width="12" height="24" fill="#FFB000"/>
    <rect x="12" width="12" height="24" fill="#000000"/>
  </pattern>
  <radialGradient id="rivet-grad" cx="35%" cy="35%" r="65%">
    <stop offset="0%" stop-color="#7A6B58"/>
    <stop offset="60%" stop-color="#2A1F18"/>
    <stop offset="100%" stop-color="#0B0807"/>
  </radialGradient>
  <style>
    .st-font { font-family: "Courier New", Courier, monospace; font-weight: bold; font-size: 11px; fill: #C8B89C; text-anchor: middle; letter-spacing: 1px; }
    .st-font-active { font-family: "Courier New", Courier, monospace; font-weight: bold; font-size: 12px; fill: #000000; text-anchor: middle; letter-spacing: 1.5px; }
    .st-font-danger { font-family: "Courier New", Courier, monospace; font-weight: bold; font-size: 12px; fill: #FF1F1F; text-anchor: middle; letter-spacing: 1.5px; }
    .st-font-inactive { font-family: "Courier New", Courier, monospace; font-weight: bold; font-size: 10px; fill: #3A2C20; text-anchor: middle; letter-spacing: 1px; }
  </style>
</defs>
<rect width="1050" height="700" fill="#0B0807"/>
<!-- sprite-btn_momentary_idle (140x56) -->
<g id="sprite-btn_momentary_idle" data-rect="0,0,140,56">
  <path d="M 6,0 H 134 L 140,6 V 50 L 134,56 H 6 L 0,50 V 6 Z" fill="#140E0A" stroke="#5A4636" stroke-width="1.5"/>
<circle cx="10" cy="10" r="3" fill="url(#rivet-grad)" stroke="#000000" stroke-width="0.5"/><circle cx="9.2" cy="9.2" r="0.8" fill="#C8B89C" opacity="0.4"/>
<circle cx="130" cy="10" r="3" fill="url(#rivet-grad)" stroke="#000000" stroke-width="0.5"/><circle cx="129.2" cy="9.2" r="0.8" fill="#C8B89C" opacity="0.4"/>
<circle cx="10" cy="46" r="3" fill="url(#rivet-grad)" stroke="#000000" stroke-width="0.5"/><circle cx="9.2" cy="45.2" r="0.8" fill="#C8B89C" opacity="0.4"/>
<circle cx="130" cy="46" r="3" fill="url(#rivet-grad)" stroke="#000000" stroke-width="0.5"/><circle cx="129.2" cy="45.2" r="0.8" fill="#C8B89C" opacity="0.4"/>
</g>
<!-- sprite-btn_momentary_armed (140x56) -->
<g id="sprite-btn_momentary_armed" data-rect="150,0,140,56">
  <path d="M 156,0 H 284 L 290,6 V 50 L 284,56 H 156 L 150,50 V 6 Z" fill="#1C140E" stroke="#FFB000" stroke-width="2"/>
<circle cx="160" cy="10" r="3" fill="url(#rivet-grad)" stroke="#000000" stroke-width="0.5"/><circle cx="159.2" cy="9.2" r="0.8" fill="#C8B89C" opacity="0.4"/>
<circle cx="280" cy="10" r="3" fill="url(#rivet-grad)" stroke="#000000" stroke-width="0.5"/><circle cx="279.2" cy="9.2" r="0.8" fill="#C8B89C" opacity="0.4"/>
<circle cx="160" cy="46" r="3" fill="url(#rivet-grad)" stroke="#000000" stroke-width="0.5"/><circle cx="159.2" cy="45.2" r="0.8" fill="#C8B89C" opacity="0.4"/>
<circle cx="280" cy="46" r="3" fill="url(#rivet-grad)" stroke="#000000" stroke-width="0.5"/><circle cx="279.2" cy="45.2" r="0.8" fill="#C8B89C" opacity="0.4"/>
  <circle cx="220.0" cy="14" r="2" fill="#FFB000"/>
</g>
<!-- sprite-btn_momentary_active (140x56) -->
<g id="sprite-btn_momentary_active" data-rect="300,0,140,56">
  <path d="M 306,0 H 434 L 440,6 V 50 L 434,56 H 306 L 300,50 V 6 Z" fill="#FFB000" stroke="#FFB000" stroke-width="1"/>
  <rect x="300" y="0" width="14" height="56" fill="url(#hazard)"/>
  <rect x="426" y="0" width="14" height="56" fill="url(#hazard)"/>
<circle cx="322" cy="10" r="3" fill="url(#rivet-grad)" stroke="#000000" stroke-width="0.5"/><circle cx="321.2" cy="9.2" r="0.8" fill="#C8B89C" opacity="0.4"/>
<circle cx="418" cy="10" r="3" fill="url(#rivet-grad)" stroke="#000000" stroke-width="0.5"/><circle cx="417.2" cy="9.2" r="0.8" fill="#C8B89C" opacity="0.4"/>
<circle cx="322" cy="46" r="3" fill="url(#rivet-grad)" stroke="#000000" stroke-width="0.5"/><circle cx="321.2" cy="45.2" r="0.8" fill="#C8B89C" opacity="0.4"/>
<circle cx="418" cy="46" r="3" fill="url(#rivet-grad)" stroke="#000000" stroke-width="0.5"/><circle cx="417.2" cy="45.2" r="0.8" fill="#C8B89C" opacity="0.4"/>
</g>
<!-- sprite-btn_latching_off (140x56) -->
<g id="sprite-btn_latching_off" data-rect="450,0,140,56">
  <path d="M 456,0 H 584 L 590,6 V 50 L 584,56 H 456 L 450,50 V 6 Z" fill="#140E0A" stroke="#5A4636" stroke-width="1.5"/>
  <rect x="470" y="18" width="20" height="20" rx="2" fill="#0B0807" stroke="#3A2C20"/>
  <line x1="480" y1="28" x2="462" y2="28" stroke="#C8B89C" stroke-width="4" stroke-linecap="round"/>
  <circle cx="462" cy="28" r="4" fill="#C8B89C"/>
</g>
<!-- sprite-btn_latching_on (140x56) -->
<g id="sprite-btn_latching_on" data-rect="600,0,140,56">
  <path d="M 606,0 H 734 L 740,6 V 50 L 734,56 H 606 L 600,50 V 6 Z" fill="#1C140E" stroke="#FFB000" stroke-width="2"/>
  <rect x="620" y="18" width="20" height="20" rx="2" fill="#0B0807" stroke="#FFB000"/>
  <line x1="630" y1="28" x2="648" y2="28" stroke="#FFB000" stroke-width="4" stroke-linecap="round"/>
  <circle cx="648" cy="28" r="4" fill="#FFD96B"/>
</g>
<!-- sprite-btn_inactive (140x56) -->
<g id="sprite-btn_inactive" data-rect="750,0,140,56">
  <path d="M 756,0 H 884 L 890,6 V 50 L 884,56 H 756 L 750,50 V 6 Z" fill="#080605" stroke="#2A1F18" stroke-width="1.5"/>
</g>
<!-- sprite-btn_danger (140x56) -->
<g id="sprite-btn_danger" data-rect="900,0,140,56">
  <path d="M 906,0 H 1034 L 1040,6 V 50 L 1034,56 H 906 L 900,50 V 6 Z" fill="#3A0808" stroke="#FF1F1F" stroke-width="2"/>
  <rect x="900" y="0" width="16" height="56" fill="url(#hazard)"/>
  <rect x="1024" y="0" width="16" height="56" fill="url(#hazard)"/>
<circle cx="922" cy="10" r="3" fill="url(#rivet-grad)" stroke="#000000" stroke-width="0.5"/><circle cx="921.2" cy="9.2" r="0.8" fill="#C8B89C" opacity="0.4"/>
<circle cx="1018" cy="10" r="3" fill="url(#rivet-grad)" stroke="#000000" stroke-width="0.5"/><circle cx="1017.2" cy="9.2" r="0.8" fill="#C8B89C" opacity="0.4"/>
<circle cx="922" cy="46" r="3" fill="url(#rivet-grad)" stroke="#000000" stroke-width="0.5"/><circle cx="921.2" cy="45.2" r="0.8" fill="#C8B89C" opacity="0.4"/>
<circle cx="1018" cy="46" r="3" fill="url(#rivet-grad)" stroke="#000000" stroke-width="0.5"/><circle cx="1017.2" cy="45.2" r="0.8" fill="#C8B89C" opacity="0.4"/>
</g>
<!-- sprite-slider_track_h (120x24) -->
<g id="sprite-slider_track_h" data-rect="0,70,120,24">
  <rect x="0" y="78" width="120" height="8" rx="2" fill="#000000" stroke="#3A2C20" stroke-width="1.5"/>
  <line x1="0" y1="70" x2="0" y2="75" stroke="#C8B89C" stroke-width="1"/>
  <line x1="0" y1="89" x2="0" y2="94" stroke="#C8B89C" stroke-width="1"/>
  <line x1="20" y1="70" x2="20" y2="75" stroke="#C8B89C" stroke-width="1"/>
  <line x1="20" y1="89" x2="20" y2="94" stroke="#C8B89C" stroke-width="1"/>
  <line x1="40" y1="70" x2="40" y2="75" stroke="#C8B89C" stroke-width="1"/>
  <line x1="40" y1="89" x2="40" y2="94" stroke="#C8B89C" stroke-width="1"/>
  <line x1="60" y1="70" x2="60" y2="75" stroke="#C8B89C" stroke-width="1"/>
  <line x1="60" y1="89" x2="60" y2="94" stroke="#C8B89C" stroke-width="1"/>
  <line x1="80" y1="70" x2="80" y2="75" stroke="#C8B89C" stroke-width="1"/>
  <line x1="80" y1="89" x2="80" y2="94" stroke="#C8B89C" stroke-width="1"/>
  <line x1="100" y1="70" x2="100" y2="75" stroke="#C8B89C" stroke-width="1"/>
  <line x1="100" y1="89" x2="100" y2="94" stroke="#C8B89C" stroke-width="1"/>
  <line x1="120" y1="70" x2="120" y2="75" stroke="#C8B89C" stroke-width="1"/>
  <line x1="120" y1="89" x2="120" y2="94" stroke="#C8B89C" stroke-width="1"/>
</g>
<!-- sprite-slider_thumb (40x24) -->
<g id="sprite-slider_thumb" data-rect="130,70,40,24">
  <rect x="130" y="70" width="40" height="24" rx="2" fill="#2A1F18" stroke="#FFB000" stroke-width="1.5"/>
  <line x1="145" y1="74" x2="145" y2="90" stroke="#FFB000" stroke-width="2"/>
  <line x1="150" y1="74" x2="150" y2="90" stroke="#FFB000" stroke-width="2"/>
  <line x1="155" y1="74" x2="155" y2="90" stroke="#FFB000" stroke-width="2"/>
</g>
<!-- sprite-slider_track_v (24x120) -->
<g id="sprite-slider_track_v" data-rect="180,70,24,120">
  <rect x="188" y="70" width="8" height="120" rx="2" fill="#000000" stroke="#3A2C20" stroke-width="1.5"/>
  <line x1="180" y1="70" x2="185" y2="70" stroke="#C8B89C" stroke-width="1"/>
  <line x1="199" y1="70" x2="204" y2="70" stroke="#C8B89C" stroke-width="1"/>
  <line x1="180" y1="90" x2="185" y2="90" stroke="#C8B89C" stroke-width="1"/>
  <line x1="199" y1="90" x2="204" y2="90" stroke="#C8B89C" stroke-width="1"/>
  <line x1="180" y1="110" x2="185" y2="110" stroke="#C8B89C" stroke-width="1"/>
  <line x1="199" y1="110" x2="204" y2="110" stroke="#C8B89C" stroke-width="1"/>
  <line x1="180" y1="130" x2="185" y2="130" stroke="#C8B89C" stroke-width="1"/>
  <line x1="199" y1="130" x2="204" y2="130" stroke="#C8B89C" stroke-width="1"/>
  <line x1="180" y1="150" x2="185" y2="150" stroke="#C8B89C" stroke-width="1"/>
  <line x1="199" y1="150" x2="204" y2="150" stroke="#C8B89C" stroke-width="1"/>
  <line x1="180" y1="170" x2="185" y2="170" stroke="#C8B89C" stroke-width="1"/>
  <line x1="199" y1="170" x2="204" y2="170" stroke="#C8B89C" stroke-width="1"/>
  <line x1="180" y1="190" x2="185" y2="190" stroke="#C8B89C" stroke-width="1"/>
  <line x1="199" y1="190" x2="204" y2="190" stroke="#C8B89C" stroke-width="1"/>
</g>
<!-- sprite-axis_rudder_track (256x32) -->
<g id="sprite-axis_rudder_track" data-rect="220,70,256,32">
  <rect x="220" y="78" width="256" height="16" fill="#000000" stroke="#5A4636" stroke-width="1.5"/>
  <line x1="220" y1="70" x2="220" y2="76" stroke="#C8B89C" stroke-width="1"/>
  <line x1="220" y1="96" x2="220" y2="102" stroke="#C8B89C" stroke-width="1"/>
  <line x1="252" y1="70" x2="252" y2="76" stroke="#C8B89C" stroke-width="1"/>
  <line x1="252" y1="96" x2="252" y2="102" stroke="#C8B89C" stroke-width="1"/>
  <line x1="284" y1="70" x2="284" y2="76" stroke="#C8B89C" stroke-width="1"/>
  <line x1="284" y1="96" x2="284" y2="102" stroke="#C8B89C" stroke-width="1"/>
  <line x1="316" y1="70" x2="316" y2="76" stroke="#C8B89C" stroke-width="1"/>
  <line x1="316" y1="96" x2="316" y2="102" stroke="#C8B89C" stroke-width="1"/>
  <line x1="348" y1="70" x2="348" y2="76" stroke="#C8B89C" stroke-width="1"/>
  <line x1="348" y1="96" x2="348" y2="102" stroke="#C8B89C" stroke-width="1"/>
  <line x1="380" y1="70" x2="380" y2="76" stroke="#C8B89C" stroke-width="1"/>
  <line x1="380" y1="96" x2="380" y2="102" stroke="#C8B89C" stroke-width="1"/>
  <line x1="412" y1="70" x2="412" y2="76" stroke="#C8B89C" stroke-width="1"/>
  <line x1="412" y1="96" x2="412" y2="102" stroke="#C8B89C" stroke-width="1"/>
  <line x1="444" y1="70" x2="444" y2="76" stroke="#C8B89C" stroke-width="1"/>
  <line x1="444" y1="96" x2="444" y2="102" stroke="#C8B89C" stroke-width="1"/>
  <line x1="476" y1="70" x2="476" y2="76" stroke="#C8B89C" stroke-width="1"/>
  <line x1="476" y1="96" x2="476" y2="102" stroke="#C8B89C" stroke-width="1"/>
<circle cx="228" cy="86" r="3" fill="url(#rivet-grad)" stroke="#000000" stroke-width="0.5"/><circle cx="227.2" cy="85.2" r="0.8" fill="#C8B89C" opacity="0.4"/>
<circle cx="468" cy="86" r="3" fill="url(#rivet-grad)" stroke="#000000" stroke-width="0.5"/><circle cx="467.2" cy="85.2" r="0.8" fill="#C8B89C" opacity="0.4"/>
</g>
<!-- sprite-axis_rudder_pedal (56x40) -->
<g id="sprite-axis_rudder_pedal" data-rect="490,70,56,40">
  <rect x="490" y="70" width="56" height="40" fill="#140E0A" stroke="#FFB000" stroke-width="2"/>
  <line x1="496" y1="78" x2="504" y2="102" stroke="#FFB000" stroke-width="3"/>
  <line x1="506" y1="78" x2="514" y2="102" stroke="#FFB000" stroke-width="3"/>
  <line x1="516" y1="78" x2="524" y2="102" stroke="#FFB000" stroke-width="3"/>
  <line x1="526" y1="78" x2="534" y2="102" stroke="#FFB000" stroke-width="3"/>
</g>
<!-- sprite-axis_throttle_track (44x120) -->
<g id="sprite-axis_throttle_track" data-rect="560,70,44,120">
  <rect x="576" y="70" width="12" height="120" fill="#000000" stroke="#3A2C20" stroke-width="1.5"/>
  <text x="568" y="82" font-family="monospace" font-size="8" fill="#C8B89C" text-anchor="end">100</text>
  <text x="568" y="134" font-family="monospace" font-size="8" fill="#C8B89C" text-anchor="end">50</text>
  <text x="568" y="186" font-family="monospace" font-size="8" fill="#C8B89C" text-anchor="end">0</text>
  <line x1="592" y1="70" x2="600" y2="70" stroke="#C8B89C" stroke-width="1"/>
  <line x1="592" y1="85" x2="600" y2="85" stroke="#C8B89C" stroke-width="1"/>
  <line x1="592" y1="100" x2="600" y2="100" stroke="#C8B89C" stroke-width="1"/>
  <line x1="592" y1="115" x2="600" y2="115" stroke="#C8B89C" stroke-width="1"/>
  <line x1="592" y1="130" x2="600" y2="130" stroke="#C8B89C" stroke-width="1"/>
  <line x1="592" y1="145" x2="600" y2="145" stroke="#C8B89C" stroke-width="1"/>
  <line x1="592" y1="160" x2="600" y2="160" stroke="#C8B89C" stroke-width="1"/>
  <line x1="592" y1="175" x2="600" y2="175" stroke="#C8B89C" stroke-width="1"/>
  <line x1="592" y1="190" x2="600" y2="190" stroke="#C8B89C" stroke-width="1"/>
</g>
<!-- sprite-axis_throttle_grip (60x20) -->
<g id="sprite-axis_throttle_grip" data-rect="620,70,60,20">
  <rect x="620" y="70" width="60" height="20" fill="#2A1F18" stroke="#8A3B12" stroke-width="1.5"/>
  <rect x="620" y="70" width="6" height="20" fill="url(#hazard)"/>
  <rect x="674" y="70" width="6" height="20" fill="url(#hazard)"/>
  <circle cx="650.0" cy="80.0" r="3" fill="#FFB000"/>
</g>
<!-- sprite-axis_yaw_needle (10x56) -->
<g id="sprite-axis_yaw_needle" data-rect="700,70,10,56">
  <polygon points="705,70 709,112 706,112 706,126 704,126 704,112 701,112" fill="#FF1F1F"/>
  <circle cx="705" cy="118" r="2" fill="#FFFFFF"/>
</g>
<!-- sprite-axis_joystick_base (120x120) -->
<g id="sprite-axis_joystick_base" data-rect="0,200,120,120">
  <circle cx="60" cy="260" r="50" fill="#000000" stroke="#2A1F18" stroke-width="2"/>
  <circle cx="60" cy="260" r="35" fill="none" stroke="#5A4636" stroke-dasharray="2 3"/>
  <circle cx="60" cy="260" r="20" fill="none" stroke="#5A4636" stroke-dasharray="2 3"/>
  <line x1="10" y1="260" x2="110" y2="260" stroke="#7A5400" stroke-dasharray="3 3"/>
  <line x1="60" y1="210" x2="60" y2="310" stroke="#7A5400" stroke-dasharray="3 3"/>
<circle cx="12" cy="212" r="3" fill="url(#rivet-grad)" stroke="#000000" stroke-width="0.5"/><circle cx="11.2" cy="211.2" r="0.8" fill="#C8B89C" opacity="0.4"/>
<circle cx="108" cy="212" r="3" fill="url(#rivet-grad)" stroke="#000000" stroke-width="0.5"/><circle cx="107.2" cy="211.2" r="0.8" fill="#C8B89C" opacity="0.4"/>
<circle cx="12" cy="308" r="3" fill="url(#rivet-grad)" stroke="#000000" stroke-width="0.5"/><circle cx="11.2" cy="307.2" r="0.8" fill="#C8B89C" opacity="0.4"/>
<circle cx="108" cy="308" r="3" fill="url(#rivet-grad)" stroke="#000000" stroke-width="0.5"/><circle cx="107.2" cy="307.2" r="0.8" fill="#C8B89C" opacity="0.4"/>
</g>
<!-- sprite-axis_joystick_thumb (40x40) -->
<g id="sprite-axis_joystick_thumb" data-rect="130,200,40,40">
  <circle cx="150" cy="220" r="18" fill="#140E0A" stroke="#FFB000" stroke-width="2"/>
  <circle cx="150" cy="220" r="8" fill="none" stroke="#5A4636"/>
  <circle cx="150" cy="220" r="3" fill="#FF1F1F"/>
</g>
<!-- sprite-axis_haat_base (120x120) -->
<g id="sprite-axis_haat_base" data-rect="180,200,120,120">
  <path d="M 200,208 H 280 L 292,220 V 300 L 280,312 H 200 L 188,300 V 220 Z" fill="#000000" stroke="#2A1F18" stroke-width="2"/>
<circle cx="194" cy="214" r="3" fill="url(#rivet-grad)" stroke="#000000" stroke-width="0.5"/><circle cx="193.2" cy="213.2" r="0.8" fill="#C8B89C" opacity="0.4"/>
<circle cx="286" cy="214" r="3" fill="url(#rivet-grad)" stroke="#000000" stroke-width="0.5"/><circle cx="285.2" cy="213.2" r="0.8" fill="#C8B89C" opacity="0.4"/>
<circle cx="194" cy="306" r="3" fill="url(#rivet-grad)" stroke="#000000" stroke-width="0.5"/><circle cx="193.2" cy="305.2" r="0.8" fill="#C8B89C" opacity="0.4"/>
<circle cx="286" cy="306" r="3" fill="url(#rivet-grad)" stroke="#000000" stroke-width="0.5"/><circle cx="285.2" cy="305.2" r="0.8" fill="#C8B89C" opacity="0.4"/>
  <line x1="200" y1="260" x2="280" y2="260" stroke="#7A5400" stroke-dasharray="2 4"/>
  <line x1="240" y1="220" x2="240" y2="300" stroke="#7A5400" stroke-dasharray="2 4"/>
</g>
<!-- sprite-axis_haat_cursor (24x24) -->
<g id="sprite-axis_haat_cursor" data-rect="310,200,24,24">
  <circle cx="322" cy="212" r="3" fill="#FF1F1F"/>
  <line x1="312" y1="212" x2="332" y2="212" stroke="#FF1F1F" stroke-width="1.2"/>
  <line x1="322" y1="202" x2="322" y2="222" stroke="#FF1F1F" stroke-width="1.2"/>
</g>
<!-- sprite-axis_yaw_ring (120x120) -->
<g id="sprite-axis_yaw_ring" data-rect="350,200,120,120">
  <circle cx="410" cy="260" r="52" fill="none" stroke="#2A1F18" stroke-width="2"/>
  <circle cx="410" cy="260" r="45" fill="none" stroke="#7A5400" stroke-dasharray="2 3"/>
  <line x1="410.0" y1="215.0" x2="410.0" y2="208.0" stroke="#7A5400" stroke-width="1"/>
  <line x1="432.5" y1="221.02885682970026" x2="436.0" y2="214.96667900320918" stroke="#7A5400" stroke-width="1"/>
  <line x1="448.97114317029974" y1="237.5" x2="455.0333209967908" y2="234.0" stroke="#7A5400" stroke-width="1"/>
  <line x1="455.0" y1="260.0" x2="462.0" y2="260.0" stroke="#7A5400" stroke-width="1"/>
  <line x1="448.97114317029974" y1="282.5" x2="455.0333209967908" y2="286.0" stroke="#7A5400" stroke-width="1"/>
  <line x1="432.5" y1="298.97114317029974" x2="436.0" y2="305.0333209967908" stroke="#7A5400" stroke-width="1"/>
  <line x1="410.0" y1="305.0" x2="410.0" y2="312.0" stroke="#7A5400" stroke-width="1"/>
  <line x1="387.5" y1="298.97114317029974" x2="384.0" y2="305.0333209967908" stroke="#7A5400" stroke-width="1"/>
  <line x1="371.02885682970026" y1="282.5" x2="364.9666790032092" y2="286.0" stroke="#7A5400" stroke-width="1"/>
  <line x1="365.0" y1="260.0" x2="358.0" y2="260.0" stroke="#7A5400" stroke-width="1"/>
  <line x1="371.02885682970026" y1="237.5" x2="364.9666790032092" y2="234.0" stroke="#7A5400" stroke-width="1"/>
  <line x1="387.5" y1="221.02885682970026" x2="384.0" y2="214.9666790032092" stroke="#7A5400" stroke-width="1"/>
  <text x="410" y="226" font-family="monospace" font-size="8" fill="#FFB000" text-anchor="middle">N</text>
  <text x="448" y="263" font-family="monospace" font-size="8" fill="#FFB000" text-anchor="middle">E</text>
  <text x="410" y="300" font-family="monospace" font-size="8" fill="#FFB000" text-anchor="middle">S</text>
  <text x="372" y="263" font-family="monospace" font-size="8" fill="#FFB000" text-anchor="middle">W</text>
</g>
<!-- sprite-knob_ring (64x64) -->
<g id="sprite-knob_ring" data-rect="480,200,64,64">
  <circle cx="512" cy="232" r="26" fill="none" stroke="#2A1F18" stroke-width="2"/>
  <line x1="496.44365081389594" y1="216.44365081389594" x2="492.90811690796323" y2="212.90811690796323" stroke="#7A5400" stroke-width="1.2"/>
  <line x1="490.7496318216405" y1="226.30598100774455" x2="485.92000269019513" y2="225.01188578223193" stroke="#7A5400" stroke-width="1.2"/>
  <line x1="490.7496318216405" y1="237.69401899225545" x2="485.92000269019513" y2="238.98811421776807" stroke="#7A5400" stroke-width="1.2"/>
  <line x1="496.44365081389594" y1="247.55634918610406" x2="492.90811690796323" y2="251.0918830920368" stroke="#7A5400" stroke-width="1.2"/>
  <line x1="506.30598100774455" y1="253.2503681783595" x2="505.01188578223196" y2="258.07999730980487" stroke="#7A5400" stroke-width="1.2"/>
  <line x1="517.6940189922555" y1="253.2503681783595" x2="518.988114217768" y2="258.07999730980487" stroke="#7A5400" stroke-width="1.2"/>
  <line x1="527.5563491861041" y1="247.55634918610406" x2="531.0918830920368" y2="251.0918830920368" stroke="#7A5400" stroke-width="1.2"/>
  <line x1="533.2503681783595" y1="237.69401899225545" x2="538.0799973098049" y2="238.98811421776807" stroke="#7A5400" stroke-width="1.2"/>
  <line x1="533.2503681783595" y1="226.30598100774455" x2="538.0799973098049" y2="225.01188578223193" stroke="#7A5400" stroke-width="1.2"/>
  <line x1="527.5563491861041" y1="216.44365081389594" x2="531.0918830920368" y2="212.90811690796323" stroke="#7A5400" stroke-width="1.2"/>
</g>
<!-- sprite-knob_cap (64x64) -->
<g id="sprite-knob_cap" data-rect="560,200,64,64">
  <circle cx="592" cy="232" r="22" fill="#140E0A" stroke="#FFB000" stroke-width="1.5"/>
  <circle cx="592" cy="232" r="12" fill="none" stroke="#2A1F18"/>
  <line x1="592" y1="232" x2="592" y2="212" stroke="#FFB000" stroke-width="2"/>
</g>
<!-- sprite-axis_dpad_base (120x120) -->
<g id="sprite-axis_dpad_base" data-rect="0,330,120,120">
  <path d="M 42,330 H 78 V 372 H 120 V 408 H 78 V 450 H 42 V 408 H 0 V 372 H 42 Z" fill="#140E0A" stroke="#2A1F18" stroke-width="2"/>
  <circle cx="60" cy="390" r="10" fill="none" stroke="#7A5400"/>
</g>
<!-- sprite-axis_dpad_up (40x36) -->
<g id="sprite-axis_dpad_up" data-rect="130,330,40,36">
  <path d="M 150,332 L 168,356 H 158 V 364 H 142 V 356 H 132 Z" fill="#FFB000" stroke="#7A5400" stroke-width="1"/>
</g>
<!-- sprite-axis_dpad_down (40x36) -->
<g id="sprite-axis_dpad_down" data-rect="180,330,40,36">
  <path d="M 200,364 L 182,340 H 192 V 332 H 208 V 340 H 218 Z" fill="#FFB000" stroke="#7A5400" stroke-width="1"/>
</g>
<!-- sprite-axis_dpad_left (36x40) -->
<g id="sprite-axis_dpad_left" data-rect="230,330,36,40">
  <path d="M 232,350 L 256,332 V 342 H 264 V 358 H 256 V 368 Z" fill="#FFB000" stroke="#7A5400" stroke-width="1"/>
</g>
<!-- sprite-axis_dpad_right (36x40) -->
<g id="sprite-axis_dpad_right" data-rect="280,330,36,40">
  <path d="M 314,350 L 290,368 V 358 H 282 V 342 H 290 V 332 Z" fill="#FFB000" stroke="#7A5400" stroke-width="1"/>
</g>
<!-- sprite-jog_wheel_f0 (96x96) -->
<g id="sprite-jog_wheel_f0" data-rect="0,460,96,96">
  <circle cx="48" cy="508" r="40" fill="#000000" stroke="#2A1F18" stroke-width="2"/>
  <circle cx="48" cy="508" r="32" fill="none" stroke="#7A5400" stroke-dasharray="4 4"/>
  <circle cx="48.0" cy="480.0" r="6" fill="#FFB000" stroke="#000000" stroke-width="1"/>
  <circle cx="48.0" cy="480.0" r="2" fill="#FFFFFF"/>
</g>
<!-- sprite-jog_wheel_f1 (96x96) -->
<g id="sprite-jog_wheel_f1" data-rect="110,460,96,96">
  <circle cx="158" cy="508" r="40" fill="#000000" stroke="#2A1F18" stroke-width="2"/>
  <circle cx="158" cy="508" r="32" fill="none" stroke="#7A5400" stroke-dasharray="4 4"/>
  <circle cx="177.79898987322332" cy="488.2010101267767" r="6" fill="#FFB000" stroke="#000000" stroke-width="1"/>
  <circle cx="177.79898987322332" cy="488.2010101267767" r="2" fill="#FFFFFF"/>
</g>
<!-- sprite-jog_wheel_f2 (96x96) -->
<g id="sprite-jog_wheel_f2" data-rect="220,460,96,96">
  <circle cx="268" cy="508" r="40" fill="#000000" stroke="#2A1F18" stroke-width="2"/>
  <circle cx="268" cy="508" r="32" fill="none" stroke="#7A5400" stroke-dasharray="4 4"/>
  <circle cx="296.0" cy="508.0" r="6" fill="#FFB000" stroke="#000000" stroke-width="1"/>
  <circle cx="296.0" cy="508.0" r="2" fill="#FFFFFF"/>
</g>
<!-- sprite-jog_wheel_f3 (96x96) -->
<g id="sprite-jog_wheel_f3" data-rect="330,460,96,96">
  <circle cx="378" cy="508" r="40" fill="#000000" stroke="#2A1F18" stroke-width="2"/>
  <circle cx="378" cy="508" r="32" fill="none" stroke="#7A5400" stroke-dasharray="4 4"/>
  <circle cx="397.7989898732233" cy="527.7989898732234" r="6" fill="#FFB000" stroke="#000000" stroke-width="1"/>
  <circle cx="397.7989898732233" cy="527.7989898732234" r="2" fill="#FFFFFF"/>
</g>
<!-- sprite-jog_wheel_f4 (96x96) -->
<g id="sprite-jog_wheel_f4" data-rect="440,460,96,96">
  <circle cx="488" cy="508" r="40" fill="#000000" stroke="#2A1F18" stroke-width="2"/>
  <circle cx="488" cy="508" r="32" fill="none" stroke="#7A5400" stroke-dasharray="4 4"/>
  <circle cx="488.0" cy="536.0" r="6" fill="#FFB000" stroke="#000000" stroke-width="1"/>
  <circle cx="488.0" cy="536.0" r="2" fill="#FFFFFF"/>
</g>
<!-- sprite-jog_wheel_f5 (96x96) -->
<g id="sprite-jog_wheel_f5" data-rect="550,460,96,96">
  <circle cx="598" cy="508" r="40" fill="#000000" stroke="#2A1F18" stroke-width="2"/>
  <circle cx="598" cy="508" r="32" fill="none" stroke="#7A5400" stroke-dasharray="4 4"/>
  <circle cx="578.2010101267766" cy="527.7989898732234" r="6" fill="#FFB000" stroke="#000000" stroke-width="1"/>
  <circle cx="578.2010101267766" cy="527.7989898732234" r="2" fill="#FFFFFF"/>
</g>
<!-- sprite-jog_wheel_f6 (96x96) -->
<g id="sprite-jog_wheel_f6" data-rect="660,460,96,96">
  <circle cx="708" cy="508" r="40" fill="#000000" stroke="#2A1F18" stroke-width="2"/>
  <circle cx="708" cy="508" r="32" fill="none" stroke="#7A5400" stroke-dasharray="4 4"/>
  <circle cx="680.0" cy="508.0" r="6" fill="#FFB000" stroke="#000000" stroke-width="1"/>
  <circle cx="680.0" cy="508.0" r="2" fill="#FFFFFF"/>
</g>
<!-- sprite-jog_wheel_f7 (96x96) -->
<g id="sprite-jog_wheel_f7" data-rect="770,460,96,96">
  <circle cx="818" cy="508" r="40" fill="#000000" stroke="#2A1F18" stroke-width="2"/>
  <circle cx="818" cy="508" r="32" fill="none" stroke="#7A5400" stroke-dasharray="4 4"/>
  <circle cx="798.2010101267766" cy="488.2010101267767" r="6" fill="#FFB000" stroke="#000000" stroke-width="1"/>
  <circle cx="798.2010101267766" cy="488.2010101267767" r="2" fill="#FFFFFF"/>
</g>
<!-- sprite-panel_tl (16x16) -->
<g id="sprite-panel_tl" data-rect="0,570,16,16">
  <path d="M 4,570 H 16 V 586 H 0 V 574 Z" fill="#0B0807"/>
  <line x1="4" y1="570" x2="0" y2="574" stroke="#5A4636" stroke-width="1"/>
  <line x1="0" y1="574" x2="0" y2="586" stroke="#5A4636" stroke-width="1"/>
  <line x1="4" y1="570" x2="16" y2="570" stroke="#5A4636" stroke-width="1"/>
  <circle cx="9" cy="579" r="1.5" fill="url(#rivet-grad)"/>
</g>
<!-- sprite-panel_tr (16x16) -->
<g id="sprite-panel_tr" data-rect="20,570,16,16">
  <path d="M 20,570 H 32 L 36,574 V 586 H 20 Z" fill="#0B0807"/>
  <line x1="32" y1="570" x2="36" y2="574" stroke="#5A4636" stroke-width="1"/>
  <line x1="20" y1="570" x2="32" y2="570" stroke="#5A4636" stroke-width="1"/>
  <line x1="36" y1="574" x2="36" y2="586" stroke="#5A4636" stroke-width="1"/>
  <circle cx="27" cy="579" r="1.5" fill="url(#rivet-grad)"/>
</g>
<!-- sprite-panel_bl (16x16) -->
<g id="sprite-panel_bl" data-rect="40,570,16,16">
  <path d="M 40,570 H 56 V 586 H 44 L 40,582 Z" fill="#0B0807"/>
  <line x1="40" y1="570" x2="40" y2="582" stroke="#5A4636" stroke-width="1"/>
  <line x1="40" y1="582" x2="44" y2="586" stroke="#5A4636" stroke-width="1"/>
  <line x1="44" y1="586" x2="56" y2="586" stroke="#5A4636" stroke-width="1"/>
  <circle cx="49" cy="577" r="1.5" fill="url(#rivet-grad)"/>
</g>
<!-- sprite-panel_br (16x16) -->
<g id="sprite-panel_br" data-rect="60,570,16,16">
  <path d="M 60,570 H 76 V 582 L 72,586 H 60 Z" fill="#0B0807"/>
  <line x1="76" y1="570" x2="76" y2="582" stroke="#5A4636" stroke-width="1"/>
  <line x1="76" y1="582" x2="72" y2="586" stroke="#5A4636" stroke-width="1"/>
  <line x1="60" y1="586" x2="72" y2="586" stroke="#5A4636" stroke-width="1"/>
  <circle cx="67" cy="577" r="1.5" fill="url(#rivet-grad)"/>
</g>
<!-- sprite-panel_edge_t (64x8) -->
<g id="sprite-panel_edge_t" data-rect="80,570,64,8">
  <rect x="80" y="570" width="64" height="8" fill="#0B0807"/>
  <line x1="80" y1="570" x2="144" y2="570" stroke="#5A4636" stroke-width="1"/>
  <line x1="80" y1="578" x2="144" y2="578" stroke="#140E0A" stroke-width="0.8"/>
</g>
<!-- sprite-panel_edge_b (64x8) -->
<g id="sprite-panel_edge_b" data-rect="150,570,64,8">
  <rect x="150" y="570" width="64" height="8" fill="#0B0807"/>
  <line x1="150" y1="578" x2="214" y2="578" stroke="#5A4636" stroke-width="1"/>
  <line x1="150" y1="570" x2="214" y2="570" stroke="#000000" stroke-width="0.8"/>
</g>
<!-- sprite-panel_edge_l (8x64) -->
<g id="sprite-panel_edge_l" data-rect="220,570,8,64">
  <rect x="220" y="570" width="8" height="64" fill="#0B0807"/>
  <line x1="220" y1="570" x2="220" y2="634" stroke="#5A4636" stroke-width="1"/>
  <line x1="228" y1="570" x2="228" y2="634" stroke="#140E0A" stroke-width="0.8"/>
</g>
<!-- sprite-panel_edge_r (8x64) -->
<g id="sprite-panel_edge_r" data-rect="230,570,8,64">
  <rect x="230" y="570" width="8" height="64" fill="#0B0807"/>
  <line x1="238" y1="570" x2="238" y2="634" stroke="#5A4636" stroke-width="1"/>
  <line x1="230" y1="570" x2="230" y2="634" stroke="#000000" stroke-width="0.8"/>
</g>
<!-- sprite-panel_center (64x64) -->
<g id="sprite-panel_center" data-rect="240,570,64,64">
  <rect x="240" y="570" width="64" height="64" fill="#000000"/>
</g>
</svg>