<?xml version="1.0" encoding="UTF-8"?>
<svg xmlns="http://www.w3.org/2000/svg" viewBox="0 0 1050 700" width="1050" height="700">
<defs>
  <linearGradient id="glass-grad" x1="0" y1="0" x2="0" y2="1">
    <stop offset="0%" stop-color="#142540"/>
    <stop offset="25%" stop-color="#0A1320"/>
    <stop offset="100%" stop-color="#04070D"/>
  </linearGradient>
  <linearGradient id="gold-grad" x1="0" y1="0" x2="0" y2="1">
    <stop offset="0%" stop-color="#F3DC9C"/>
    <stop offset="50%" stop-color="#D4B26A"/>
    <stop offset="100%" stop-color="#7A5E2B"/>
  </linearGradient>
  <style>
    .or-font { font-family: "Segoe UI", "Helvetica Neue", Arial, sans-serif; font-size: 10px; fill: #E8EEF6; text-anchor: middle; letter-spacing: 2px; }
    .or-font-active { font-family: "Segoe UI", "Helvetica Neue", Arial, sans-serif; font-weight: bold; font-size: 11px; fill: #04070D; text-anchor: middle; letter-spacing: 2.5px; }
    .or-font-danger { font-family: "Segoe UI", "Helvetica Neue", Arial, sans-serif; font-size: 11px; fill: #FF5A6A; text-anchor: middle; letter-spacing: 2px; }
    .or-font-inactive { font-family: "Segoe UI", "Helvetica Neue", Arial, sans-serif; font-size: 10px; fill: #54627A; text-anchor: middle; letter-spacing: 2px; }
  </style>
</defs>
<rect width="1050" height="700" fill="#04070D"/>
<!-- sprite-btn_momentary_idle (140x56) -->
<g id="sprite-btn_momentary_idle" data-rect="0,0,140,56">
  <rect x="0" y="0" width="140" height="56" rx="6" fill="url(#glass-grad)" stroke="#243349" stroke-width="1.2"/>
  <path d="M 6,1.5 H 134" stroke="#6EC4FF" stroke-width="0.8" opacity="0.4"/>
</g>
<!-- sprite-btn_momentary_armed (140x56) -->
<g id="sprite-btn_momentary_armed" data-rect="150,0,140,56">
  <rect x="150" y="0" width="140" height="56" rx="6" fill="url(#glass-grad)" stroke="#6EC4FF" stroke-width="1.8"/>
  <path d="M 156,1.5 H 284" stroke="#E8EEF6" stroke-width="1" opacity="0.6"/>
  <line x1="158" y1="12" x2="158" y2="44" stroke="url(#gold-grad)" stroke-width="2"/>
</g>
<!-- sprite-btn_momentary_active (140x56) -->
<g id="sprite-btn_momentary_active" data-rect="300,0,140,56">
  <rect x="300" y="0" width="140" height="56" rx="6" fill="#6EC4FF" stroke="#6EC4FF" stroke-width="1"/>
  <rect x="300" y="0" width="140" height="2" rx="1" fill="#FFFFFF" opacity="0.6"/>
</g>
<!-- sprite-btn_latching_off (140x56) -->
<g id="sprite-btn_latching_off" data-rect="450,0,140,56">
  <rect x="450" y="0" width="140" height="56" rx="6" fill="url(#glass-grad)" stroke="#243349" stroke-width="1.2"/>
  <rect x="470" y="20" width="40" height="16" rx="8" fill="#04070D" stroke="#243349" stroke-width="1"/>
  <circle cx="478" cy="28" r="8" fill="#54627A"/>
</g>
<!-- sprite-btn_latching_on (140x56) -->
<g id="sprite-btn_latching_on" data-rect="600,0,140,56">
  <rect x="600" y="0" width="140" height="56" rx="6" fill="url(#glass-grad)" stroke="#6EC4FF" stroke-width="1.5"/>
  <rect x="620" y="20" width="40" height="16" rx="8" fill="#04070D" stroke="#6EC4FF" stroke-width="1"/>
  <circle cx="652" cy="28" r="8" fill="#6EC4FF"/>
  <circle cx="652" cy="28" r="3" fill="#FFFFFF"/>
</g>
<!-- sprite-btn_inactive (140x56) -->
<g id="sprite-btn_inactive" data-rect="750,0,140,56">
  <rect x="750" y="0" width="140" height="56" rx="6" fill="#04070D" stroke="#243349" stroke-width="1" stroke-dasharray="3 3"/>
</g>
<!-- sprite-btn_danger (140x56) -->
<g id="sprite-btn_danger" data-rect="900,0,140,56">
  <rect x="900" y="0" width="140" height="56" rx="6" fill="#1C090D" stroke="#FF5A6A" stroke-width="1.8"/>
  <line x1="908" y1="12" x2="908" y2="44" stroke="url(#gold-grad)" stroke-width="2"/>
</g>
<!-- sprite-slider_track_h (120x24) -->
<g id="sprite-slider_track_h" data-rect="0,70,120,24">
  <rect x="0" y="80" width="120" height="4" rx="2" fill="#04070D" stroke="#243349" stroke-width="1"/>
  <line x1="0" y1="88" x2="0" y2="92" stroke="#54627A" stroke-width="0.8"/>
  <line x1="30" y1="88" x2="30" y2="92" stroke="#54627A" stroke-width="0.8"/>
  <line x1="60" y1="88" x2="60" y2="92" stroke="#54627A" stroke-width="0.8"/>
  <line x1="90" y1="88" x2="90" y2="92" stroke="#54627A" stroke-width="0.8"/>
  <line x1="120" y1="88" x2="120" y2="92" stroke="#54627A" stroke-width="0.8"/>
</g>
<!-- sprite-slider_thumb (40x24) -->
<g id="sprite-slider_thumb" data-rect="130,70,40,24">
  <rect x="130" y="70" width="40" height="24" rx="12" fill="url(#glass-grad)" stroke="#6EC4FF" stroke-width="1.8"/>
  <circle cx="150.0" cy="82.0" r="3" fill="#E8EEF6"/>
</g>
<!-- sprite-slider_track_v (24x120) -->
<g id="sprite-slider_track_v" data-rect="180,70,24,120">
  <rect x="190" y="70" width="4" height="120" rx="2" fill="#04070D" stroke="#243349" stroke-width="1"/>
  <line x1="198" y1="70" x2="202" y2="70" stroke="#54627A" stroke-width="0.8"/>
  <line x1="198" y1="100" x2="202" y2="100" stroke="#54627A" stroke-width="0.8"/>
  <line x1="198" y1="130" x2="202" y2="130" stroke="#54627A" stroke-width="0.8"/>
  <line x1="198" y1="160" x2="202" y2="160" stroke="#54627A" stroke-width="0.8"/>
  <line x1="198" y1="190" x2="202" y2="190" stroke="#54627A" stroke-width="0.8"/>
</g>
<!-- sprite-axis_rudder_track (256x32) -->
<g id="sprite-axis_rudder_track" data-rect="220,70,256,32">
  <rect x="220" y="84" width="256" height="4" rx="2" fill="#04070D" stroke="#243349" stroke-width="1"/>
  <line x1="220" y1="74" x2="220" y2="80" stroke="#6EC4FF" stroke-width="0.8" opacity="0.6"/>
  <line x1="252" y1="74" x2="252" y2="80" stroke="#6EC4FF" stroke-width="0.8" opacity="0.6"/>
  <line x1="284" y1="74" x2="284" y2="80" stroke="#6EC4FF" stroke-width="0.8" opacity="0.6"/>
  <line x1="316" y1="74" x2="316" y2="80" stroke="#6EC4FF" stroke-width="0.8" opacity="0.6"/>
  <line x1="348" y1="74" x2="348" y2="80" stroke="#6EC4FF" stroke-width="0.8" opacity="0.6"/>
  <line x1="380" y1="74" x2="380" y2="80" stroke="#6EC4FF" stroke-width="0.8" opacity="0.6"/>
  <line x1="412" y1="74" x2="412" y2="80" stroke="#6EC4FF" stroke-width="0.8" opacity="0.6"/>
  <line x1="444" y1="74" x2="444" y2="80" stroke="#6EC4FF" stroke-width="0.8" opacity="0.6"/>
  <line x1="476" y1="74" x2="476" y2="80" stroke="#6EC4FF" stroke-width="0.8" opacity="0.6"/>
</g>
<!-- sprite-axis_rudder_pedal (56x40) -->
<g id="sprite-axis_rudder_pedal" data-rect="490,70,56,40">
  <rect x="494" y="74" width="48" height="32" rx="6" fill="url(#glass-grad)" stroke="url(#gold-grad)" stroke-width="1.8"/>
  <line x1="504" y1="86" x2="532" y2="86" stroke="#6EC4FF" stroke-width="1"/>
  <line x1="504" y1="94" x2="532" y2="94" stroke="#6EC4FF" stroke-width="1"/>
</g>
<!-- sprite-axis_throttle_track (44x120) -->
<g id="sprite-axis_throttle_track" data-rect="560,70,44,120">
  <rect x="580" y="70" width="4" height="120" rx="2" fill="#04070D" stroke="#243349" stroke-width="1"/>
  <text x="570" y="82" font-family="sans-serif" font-size="8" fill="#6EC4FF" text-anchor="end">100</text>
  <text x="570" y="134" font-family="sans-serif" font-size="8" fill="#6EC4FF" text-anchor="end">50</text>
  <text x="570" y="186" font-family="sans-serif" font-size="8" fill="#6EC4FF" text-anchor="end">0</text>
</g>
<!-- sprite-axis_throttle_grip (60x20) -->
<g id="sprite-axis_throttle_grip" data-rect="620,70,60,20">
  <rect x="620" y="70" width="60" height="20" rx="10" fill="url(#glass-grad)" stroke="#6EC4FF" stroke-width="1.5"/>
  <circle cx="650.0" cy="80.0" r="5" fill="none" stroke="url(#gold-grad)" stroke-width="1.5"/>
</g>
<!-- sprite-axis_yaw_needle (10x56) -->
<g id="sprite-axis_yaw_needle" data-rect="700,70,10,56">
  <line x1="705" y1="70" x2="705" y2="126" stroke="url(#gold-grad)" stroke-width="1.5"/>
  <circle cx="705" cy="98" r="3.5" fill="url(#gold-grad)"/>
  <circle cx="705" cy="98" r="1.2" fill="#04070D"/>
</g>
<!-- sprite-axis_joystick_base (120x120) -->
<g id="sprite-axis_joystick_base" data-rect="0,200,120,120">
  <circle cx="60" cy="260" r="50" fill="none" stroke="#243349" stroke-width="1.5"/>
  <circle cx="60" cy="260" r="36" fill="none" stroke="url(#gold-grad)" stroke-width="0.8" opacity="0.6"/>
  <circle cx="60" cy="260" r="22" fill="none" stroke="#243349" stroke-dasharray="1 3"/>
  <line x1="8" y1="260" x2="112" y2="260" stroke="#243349" stroke-width="0.8"/>
  <line x1="60" y1="208" x2="60" y2="312" stroke="#243349" stroke-width="0.8"/>
</g>
<!-- sprite-axis_joystick_thumb (40x40) -->
<g id="sprite-axis_joystick_thumb" data-rect="130,200,40,40">
  <circle cx="150" cy="220" r="18" fill="url(#glass-grad)" stroke="#6EC4FF" stroke-width="1.8"/>
  <circle cx="150" cy="220" r="3" fill="#E8EEF6"/>
</g>
<!-- sprite-axis_haat_base (120x120) -->
<g id="sprite-axis_haat_base" data-rect="180,200,120,120">
  <rect x="188" y="208" width="104" height="104" rx="10" fill="url(#glass-grad)" stroke="#243349" stroke-width="1.5"/>
  <rect x="194" y="214" width="92" height="92" rx="6" fill="none" stroke="url(#gold-grad)" stroke-width="0.8" opacity="0.6"/>
</g>
<!-- sprite-axis_haat_cursor (24x24) -->
<g id="sprite-axis_haat_cursor" data-rect="310,200,24,24">
  <circle cx="322" cy="212" r="4" fill="#6EC4FF"/>
  <circle cx="322" cy="212" r="9" fill="none" stroke="#6EC4FF" stroke-width="0.8" stroke-dasharray="1 2"/>
</g>
<!-- sprite-axis_yaw_ring (120x120) -->
<g id="sprite-axis_yaw_ring" data-rect="350,200,120,120">
  <circle cx="410" cy="260" r="50" fill="none" stroke="#243349" stroke-width="1.2"/>
  <circle cx="410" cy="260" r="44" fill="none" stroke="url(#gold-grad)" stroke-width="0.8" opacity="0.6"/>
  <line x1="410.0" y1="216.0" x2="410.0" y2="210.0" stroke="#243349" stroke-width="1"/>
  <line x1="441.1126983722081" y1="228.8873016277919" x2="445.3553390593274" y2="224.64466094067262" stroke="#243349" stroke-width="1"/>
  <line x1="454.0" y1="260.0" x2="460.0" y2="260.0" stroke="#243349" stroke-width="1"/>
  <line x1="441.1126983722081" y1="291.1126983722081" x2="445.3553390593274" y2="295.3553390593274" stroke="#243349" stroke-width="1"/>
  <line x1="410.0" y1="304.0" x2="410.0" y2="310.0" stroke="#243349" stroke-width="1"/>
  <line x1="378.8873016277919" y1="291.1126983722081" x2="374.6446609406726" y2="295.3553390593274" stroke="#243349" stroke-width="1"/>
  <line x1="366.0" y1="260.0" x2="360.0" y2="260.0" stroke="#243349" stroke-width="1"/>
  <line x1="378.8873016277919" y1="228.8873016277919" x2="374.6446609406726" y2="224.64466094067262" stroke="#243349" stroke-width="1"/>
  <text x="410" y="228" font-family="sans-serif" font-size="8" fill="#D4B26A" text-anchor="middle">N</text>
  <text x="446" y="263" font-family="sans-serif" font-size="8" fill="#D4B26A" text-anchor="middle">E</text>
</g>
<!-- sprite-knob_ring (64x64) -->
<g id="sprite-knob_ring" data-rect="480,200,64,64">
  <circle cx="512" cy="232" r="26" fill="none" stroke="#243349" stroke-width="1.2"/>
  <path d="M 493.62,250.38 A 26 26 0 1 1 530.38,250.38" fill="none" stroke="url(#gold-grad)" stroke-width="1" opacity="0.7"/>
</g>
<!-- sprite-knob_cap (64x64) -->
<g id="sprite-knob_cap" data-rect="560,200,64,64">
  <circle cx="592" cy="232" r="22" fill="url(#glass-grad)" stroke="#6EC4FF" stroke-width="1.5"/>
  <circle cx="592" cy="216" r="2.5" fill="url(#gold-grad)"/>
</g>
<!-- sprite-axis_dpad_base (120x120) -->
<g id="sprite-axis_dpad_base" data-rect="0,330,120,120">
  <path d="M 44,340 H 76 V 374 H 110 V 406 H 76 V 440 H 44 V 406 H 10 V 374 H 44 Z" fill="url(#glass-grad)" stroke="#243349" stroke-width="1.5"/>
  <circle cx="60" cy="390" r="8" fill="none" stroke="url(#gold-grad)" stroke-width="0.8" opacity="0.6"/>
</g>
<!-- sprite-axis_dpad_up (40x36) -->
<g id="sprite-axis_dpad_up" data-rect="130,330,40,36">
  <path d="M 150,336 L 164,352 H 156 V 360 H 144 V 352 H 136 Z" fill="#6EC4FF" stroke="#2A6B96" stroke-width="1"/>
</g>
<!-- sprite-axis_dpad_down (40x36) -->
<g id="sprite-axis_dpad_down" data-rect="180,330,40,36">
  <path d="M 200,360 L 186,344 H 194 V 336 H 206 V 344 H 214 Z" fill="#6EC4FF" stroke="#2A6B96" stroke-width="1"/>
</g>
<!-- sprite-axis_dpad_left (36x40) -->
<g id="sprite-axis_dpad_left" data-rect="230,330,36,40">
  <path d="M 236,350 L 252,336 V 344 H 260 V 356 H 252 V 364 Z" fill="#6EC4FF" stroke="#2A6B96" stroke-width="1"/>
</g>
<!-- sprite-axis_dpad_right (36x40) -->
<g id="sprite-axis_dpad_right" data-rect="280,330,36,40">
  <path d="M 310,350 L 294,364 V 356 H 286 V 344 H 294 V 336 Z" fill="#6EC4FF" stroke="#2A6B96" stroke-width="1"/>
</g>
<!-- sprite-jog_wheel_f0 (96x96) -->
<g id="sprite-jog_wheel_f0" data-rect="0,460,96,96">
  <circle cx="48" cy="508" r="38" fill="#04070D" stroke="#243349" stroke-width="1.5"/>
  <circle cx="48" cy="508" r="32" fill="none" stroke="url(#gold-grad)" stroke-width="0.8" opacity="0.6"/>
  <circle cx="48.0" cy="476.0" r="5" fill="#6EC4FF"/>
  <circle cx="48.0" cy="476.0" r="2" fill="#FFFFFF"/>
</g>
<!-- sprite-jog_wheel_f1 (96x96) -->
<g id="sprite-jog_wheel_f1" data-rect="110,460,96,96">
  <circle cx="158" cy="508" r="38" fill="#04070D" stroke="#243349" stroke-width="1.5"/>
  <circle cx="158" cy="508" r="32" fill="none" stroke="url(#gold-grad)" stroke-width="0.8" opacity="0.6"/>
  <circle cx="180.62741699796953" cy="485.37258300203047" r="5" fill="#6EC4FF"/>
  <circle cx="180.62741699796953" cy="485.37258300203047" r="2" fill="#FFFFFF"/>
</g>
<!-- sprite-jog_wheel_f2 (96x96) -->
<g id="sprite-jog_wheel_f2" data-rect="220,460,96,96">
  <circle cx="268" cy="508" r="38" fill="#04070D" stroke="#243349" stroke-width="1.5"/>
  <circle cx="268" cy="508" r="32" fill="none" stroke="url(#gold-grad)" stroke-width="0.8" opacity="0.6"/>
  <circle cx="300.0" cy="508.0" r="5" fill="#6EC4FF"/>
  <circle cx="300.0" cy="508.0" r="2" fill="#FFFFFF"/>
</g>
<!-- sprite-jog_wheel_f3 (96x96) -->
<g id="sprite-jog_wheel_f3" data-rect="330,460,96,96">
  <circle cx="378" cy="508" r="38" fill="#04070D" stroke="#243349" stroke-width="1.5"/>
  <circle cx="378" cy="508" r="32" fill="none" stroke="url(#gold-grad)" stroke-width="0.8" opacity="0.6"/>
  <circle cx="400.62741699796953" cy="530.6274169979695" r="5" fill="#6EC4FF"/>
  <circle cx="400.62741699796953" cy="530.6274169979695" r="2" fill="#FFFFFF"/>
</g>
<!-- sprite-jog_wheel_f4 (96x96) -->
<g id="sprite-jog_wheel_f4" data-rect="440,460,96,96">
  <circle cx="488" cy="508" r="38" fill="#04070D" stroke="#243349" stroke-width="1.5"/>
  <circle cx="488" cy="508" r="32" fill="none" stroke="url(#gold-grad)" stroke-width="0.8" opacity="0.6"/>
  <circle cx="488.0" cy="540.0" r="5" fill="#6EC4FF"/>
  <circle cx="488.0" cy="540.0" r="2" fill="#FFFFFF"/>
</g>
<!-- sprite-jog_wheel_f5 (96x96) -->
<g id="sprite-jog_wheel_f5" data-rect="550,460,96,96">
  <circle cx="598" cy="508" r="38" fill="#04070D" stroke="#243349" stroke-width="1.5"/>
  <circle cx="598" cy="508" r="32" fill="none" stroke="url(#gold-grad)" stroke-width="0.8" opacity="0.6"/>
  <circle cx="575.3725830020305" cy="530.6274169979695" r="5" fill="#6EC4FF"/>
  <circle cx="575.3725830020305" cy="530.6274169979695" r="2" fill="#FFFFFF"/>
</g>
<!-- sprite-jog_wheel_f6 (96x96) -->
<g id="sprite-jog_wheel_f6" data-rect="660,460,96,96">
  <circle cx="708" cy="508" r="38" fill="#04070D" stroke="#243349" stroke-width="1.5"/>
  <circle cx="708" cy="508" r="32" fill="none" stroke="url(#gold-grad)" stroke-width="0.8" opacity="0.6"/>
  <circle cx="676.0" cy="508.0" r="5" fill="#6EC4FF"/>
  <circle cx="676.0" cy="508.0" r="2" fill="#FFFFFF"/>
</g>
<!-- sprite-jog_wheel_f7 (96x96) -->
<g id="sprite-jog_wheel_f7" data-rect="770,460,96,96">
  <circle cx="818" cy="508" r="38" fill="#04070D" stroke="#243349" stroke-width="1.5"/>
  <circle cx="818" cy="508" r="32" fill="none" stroke="url(#gold-grad)" stroke-width="0.8" opacity="0.6"/>
  <circle cx="795.3725830020305" cy="485.37258300203047" r="5" fill="#6EC4FF"/>
  <circle cx="795.3725830020305" cy="485.37258300203047" r="2" fill="#FFFFFF"/>
</g>
<!-- sprite-panel_tl (16x16) -->
<g id="sprite-panel_tl" data-rect="0,570,16,16">
  <path d="M 16,570 H 6 A 6 6 0 0 0 0,576 V 586 H 8 V 578 H 16 Z" fill="url(#glass-grad)" stroke="#243349" stroke-width="1"/>
  <path d="M 6,571 H 16" stroke="#6EC4FF" stroke-width="0.8" opacity="0.5"/>
</g>
<!-- sprite-panel_tr (16x16) -->
<g id="sprite-panel_tr" data-rect="20,570,16,16">
  <path d="M 20,570 H 30 A 6 6 0 0 1 36,576 V 586 H 28 V 578 H 20 Z" fill="url(#glass-grad)" stroke="#243349" stroke-width="1"/>
  <path d="M 20,571 H 30" stroke="#6EC4FF" stroke-width="0.8" opacity="0.5"/>
</g>
<!-- sprite-panel_bl (16x16) -->
<g id="sprite-panel_bl" data-rect="40,570,16,16">
  <path d="M 40,570 H 48 V 578 H 56 V 586 H 46 A 6 6 0 0 1 40,580 Z" fill="url(#glass-grad)" stroke="#243349" stroke-width="1"/>
</g>
<!-- sprite-panel_br (16x16) -->
<g id="sprite-panel_br" data-rect="60,570,16,16">
  <path d="M 60,570 H 76 V 580 A 6 6 0 0 1 70,586 H 60 V 578 H 68 Z" fill="url(#glass-grad)" stroke="#243349" stroke-width="1"/>
</g>
<!-- sprite-panel_edge_t (64x8) -->
<g id="sprite-panel_edge_t" data-rect="80,570,64,8">
  <rect x="80" y="570" width="64" height="8" fill="url(#glass-grad)"/>
  <line x1="80" y1="570" x2="144" y2="570" stroke="#243349" stroke-width="1"/>
  <line x1="80" y1="570" x2="144" y2="570" stroke="#6EC4FF" stroke-width="0.8" opacity="0.5"/>
</g>
<!-- sprite-panel_edge_b (64x8) -->
<g id="sprite-panel_edge_b" data-rect="150,570,64,8">
  <rect x="150" y="570" width="64" height="8" fill="url(#glass-grad)"/>
  <line x1="150" y1="578" x2="214" y2="578" stroke="#243349" stroke-width="1"/>
</g>
<!-- sprite-panel_edge_l (8x64) -->
<g id="sprite-panel_edge_l" data-rect="220,570,8,64">
  <rect x="220" y="570" width="8" height="64" fill="url(#glass-grad)"/>
  <line x1="220" y1="570" x2="220" y2="634" stroke="#243349" stroke-width="1"/>
</g>
<!-- sprite-panel_edge_r (8x64) -->
<g id="sprite-panel_edge_r" data-rect="230,570,8,64">
  <rect x="230" y="570" width="8" height="64" fill="url(#glass-grad)"/>
  <line x1="238" y1="570" x2="238" y2="634" stroke="#243349" stroke-width="1"/>
</g>
<!-- sprite-panel_center (64x64) -->
<g id="sprite-panel_center" data-rect="240,570,64,64">
  <rect x="240" y="570" width="64" height="64" fill="#0A1320"/>
  <line x1="240" y1="602" x2="304" y2="602" stroke="#243349" stroke-width="0.5" opacity="0.3"/>
  <line x1="272" y1="570" x2="272" y2="634" stroke="#243349" stroke-width="0.5" opacity="0.3"/>
</g>
</svg>