<?xml version="1.0" encoding="UTF-8"?>
<svg xmlns="http://www.w3.org/2000/svg" viewBox="0 0 800 1280" width="800" height="1280" font-family="ui-monospace, 'JetBrains Mono', Menlo, Consolas, monospace">
  <!-- =========================================================
       MOCKUP · SALON / CONCIERGE  ·  Origin 380 Jump  ·  800 × 1280
       The "luxury yacht" console — climate, lighting moods,
       beverage service, view selection, guest manifest.
       ========================================================= -->
  <defs>
    <linearGradient id="glass" x1="0" y1="0" x2="0" y2="1">
      <stop offset="0%"  stop-color="#142540"/>
      <stop offset="6%"  stop-color="#0E1B2E"/>
      <stop offset="100%" stop-color="#070D17"/>
    </linearGradient>
    <linearGradient id="glass-soft" x1="0" y1="0" x2="0" y2="1">
      <stop offset="0%"  stop-color="#1B2D49"/>
      <stop offset="100%" stop-color="#0A1320"/>
    </linearGradient>
    <linearGradient id="gold" x1="0" y1="0" x2="0" y2="1">
      <stop offset="0%"  stop-color="#F3DC9C"/>
      <stop offset="50%" stop-color="#D4B26A"/>
      <stop offset="100%" stop-color="#7A5E2B"/>
    </linearGradient>
    <radialGradient id="pageglow" cx="50%" cy="15%" r="80%">
      <stop offset="0%" stop-color="#0E1A2E" stop-opacity="0.7"/>
      <stop offset="100%" stop-color="#04070D" stop-opacity="0"/>
    </radialGradient>

    <!-- Warm lighting preview gradient (low-cost: baked into static atlas) -->
    <linearGradient id="warm" x1="0" y1="0" x2="1" y2="0">
      <stop offset="0%"  stop-color="#3A2010"/>
      <stop offset="50%" stop-color="#D4862A" stop-opacity="0.7"/>
      <stop offset="100%" stop-color="#FFB454"/>
    </linearGradient>
    <linearGradient id="cool" x1="0" y1="0" x2="1" y2="0">
      <stop offset="0%"  stop-color="#0A1320"/>
      <stop offset="50%" stop-color="#2A6B96" stop-opacity="0.7"/>
      <stop offset="100%" stop-color="#6EC4FF"/>
    </linearGradient>

    <filter id="iceglow" x="-50%" y="-50%" width="200%" height="200%">
      <feGaussianBlur stdDeviation="3" result="b"/>
      <feMerge><feMergeNode in="b"/><feMergeNode in="SourceGraphic"/></feMerge>
    </filter>

    <style>
      .lbl       { font-size: 11px; fill: #7C8AA0; letter-spacing: 3px; }
      .lbl-d     { font-size: 10px; fill: #54627A; letter-spacing: 2.5px; }
      .hdr       { font-size: 13px; fill: #E8EEF6; letter-spacing: 5px; font-weight: 400; }
      .hdr-gold  { font-size: 11px; fill: #D4B26A; letter-spacing: 4px; }
      .num       { font-size: 22px; fill: #BFE5FF; font-weight: 600; }
      .big       { font-size: 48px; fill: #E8EEF6; font-weight: 300; letter-spacing: 2px; }
      .chip      { font-size: 9px; fill: #54627A; letter-spacing: 1px; }
      .serif-num { font-size: 56px; fill: #E8EEF6; font-weight: 200; letter-spacing: 1px; font-family: 'EB Garamond', Georgia, serif; }
    </style>
  </defs>

  <rect width="800" height="1280" fill="#04070D"/>
  <rect width="800" height="1280" fill="url(#pageglow)"/>

  <!-- ============== TOP BAR ============== -->
  <g>
    <rect width="800" height="64" fill="#070D17"/>
    <line x1="0" y1="64" x2="800" y2="64" stroke="#243349"/>
    <line x1="0" y1="63" x2="800" y2="63" stroke="#5F7A9E" opacity="0.4"/>
    <rect x="0" y="60" width="800" height="1" fill="#D4B26A" opacity="0.7"/>
    <g transform="translate(24,30)">
      <circle r="11" fill="none" stroke="url(#gold)" stroke-width="1.5"/>
      <circle r="3" fill="#D4B26A"/>
    </g>
    <text x="48" y="28" class="hdr">ORIGIN  ·  380  JUMP</text>
    <text x="48" y="46" class="hdr-gold">Salon  ·  Concierge</text>
    <g transform="translate(776,28)" text-anchor="end">
      <text class="hdr">21 : 24 : 06</text>
      <text y="18" class="chip">EVENING  ·  COURSE  HOLDING</text>
    </g>
  </g>

  <!-- ============== HERO  ·  AMBIENCE PRESETS ============== -->
  <g transform="translate(20,84)">
    <rect x="3" y="6" width="760" height="280" rx="8" fill="#000" opacity="0.4"/>
    <rect width="760" height="280" rx="6" fill="url(#glass)" stroke="#243349"/>
    <path d="M 6 0 H 754 A 6 6 0 0 1 760 6" fill="none" stroke="#5F7A9E"/>
    <path d="M 6 1.5 H 754" stroke="#BFE5FF" stroke-width="0.5" opacity="0.5"/>

    <rect x="20" y="20" width="2" height="40" fill="url(#gold)"/>
    <text x="36" y="36" class="hdr">Ambience</text>
    <text x="36" y="56" class="hdr-gold">Set the mood for the salon</text>
    <text x="744" y="36" class="hdr-gold" text-anchor="end">SCENE  ·  EVENING</text>

    <!-- Preset cards -->
    <g transform="translate(20,88)">
      <!-- Card: Reception (active, gold) -->
      <g>
        <rect width="170" height="170" rx="6" fill="#1B2D49" stroke="#D4B26A"/>
        <rect width="170" height="2" rx="1" fill="#D4B26A"/>
        <!-- preview -->
        <rect x="14" y="20" width="142" height="60" rx="4" fill="url(#warm)"/>
        <rect x="14" y="20" width="142" height="60" rx="4" fill="#04070D" opacity="0.2"/>
        <text x="14" y="106" class="lbl">SCENE</text>
        <text x="14" y="128" font-size="16" fill="#E8EEF6" letter-spacing="2">Reception</text>
        <text x="14" y="148" class="chip">warm  ·  string quartet</text>
        <circle cx="156" cy="156" r="5" fill="#D4B26A"/>
      </g>
      <!-- Card: Dinner -->
      <g transform="translate(180,0)">
        <rect width="170" height="170" rx="6" fill="url(#glass-soft)" stroke="#243349"/>
        <rect x="14" y="20" width="142" height="60" rx="4" fill="url(#warm)" opacity="0.7"/>
        <rect x="14" y="20" width="142" height="60" rx="4" fill="#04070D" opacity="0.35"/>
        <text x="14" y="106" class="lbl">SCENE</text>
        <text x="14" y="128" font-size="16" fill="#E8EEF6" letter-spacing="2">Dinner</text>
        <text x="14" y="148" class="chip">candle  ·  jazz trio</text>
      </g>
      <!-- Card: Lounge -->
      <g transform="translate(360,0)">
        <rect width="170" height="170" rx="6" fill="url(#glass-soft)" stroke="#243349"/>
        <rect x="14" y="20" width="142" height="60" rx="4" fill="url(#cool)" opacity="0.6"/>
        <rect x="14" y="20" width="142" height="60" rx="4" fill="#04070D" opacity="0.35"/>
        <text x="14" y="106" class="lbl">SCENE</text>
        <text x="14" y="128" font-size="16" fill="#E8EEF6" letter-spacing="2">Lounge</text>
        <text x="14" y="148" class="chip">cool  ·  ambient</text>
      </g>
      <!-- Card: Observation -->
      <g transform="translate(540,0)">
        <rect width="180" height="170" rx="6" fill="url(#glass-soft)" stroke="#243349"/>
        <rect x="14" y="20" width="152" height="60" rx="4" fill="#04070D"/>
        <!-- starfield mini -->
        <g fill="#BFE5FF">
          <circle cx="22" cy="34" r="0.8"/>
          <circle cx="44" cy="46" r="0.6"/>
          <circle cx="62" cy="28" r="1"/>
          <circle cx="92" cy="58" r="0.7"/>
          <circle cx="118" cy="38" r="0.9"/>
          <circle cx="146" cy="60" r="0.6"/>
          <circle cx="158" cy="30" r="0.8"/>
          <circle cx="80" cy="70" r="0.5"/>
        </g>
        <text x="14" y="106" class="lbl">SCENE</text>
        <text x="14" y="128" font-size="16" fill="#E8EEF6" letter-spacing="2">Observation</text>
        <text x="14" y="148" class="chip">dimmed  ·  silent</text>
      </g>
    </g>
  </g>

  <!-- ============== CLIMATE + LIGHTING + AUDIO ============== -->
  <g transform="translate(20,384)">
    <!-- CLIMATE -->
    <g>
      <rect x="3" y="6" width="370" height="280" rx="8" fill="#000" opacity="0.4"/>
      <rect width="370" height="280" rx="6" fill="url(#glass)" stroke="#243349"/>
      <path d="M 6 0 H 364 A 6 6 0 0 1 370 6" fill="none" stroke="#5F7A9E"/>
      <text x="20" y="28" class="hdr">Climate</text>
      <text x="350" y="28" class="hdr-gold" text-anchor="end">SALON</text>
      <line x1="20" y1="40" x2="350" y2="40" stroke="#243349"/>
      <line x1="20" y1="40" x2="80" y2="40" stroke="#D4B26A" opacity="0.7"/>

      <!-- big temperature dial -->
      <g transform="translate(110,150)">
        <circle r="78" fill="none" stroke="#11203A" stroke-width="6"/>
        <!-- arc 21.4 / 28 = roughly 76% -->
        <circle r="78" fill="none" stroke="#6EC4FF" stroke-width="6"
                stroke-dasharray="372 490" transform="rotate(-90)"/>
        <circle r="60" fill="none" stroke="#D4B26A" stroke-width="0.8" opacity="0.5"/>
        <text y="4" font-size="34" fill="#E8EEF6" text-anchor="middle" font-weight="300">21.4°</text>
        <text y="26" class="chip" text-anchor="middle">CABIN</text>
      </g>

      <!-- right column: humidity / fresh air -->
      <g transform="translate(220,80)" font-size="11" letter-spacing="2">
        <text fill="#7C8AA0">HUMIDITY</text>
        <text x="120" fill="#E8EEF6" text-anchor="end">42%</text>
        <rect y="10" width="120" height="4" rx="2" fill="#11203A"/>
        <rect y="10" width="50" height="4" rx="2" fill="#6EC4FF"/>

        <text y="40" fill="#7C8AA0">FRESH AIR</text>
        <text x="120" y="40" fill="#E8EEF6" text-anchor="end">68%</text>
        <rect y="50" width="120" height="4" rx="2" fill="#11203A"/>
        <rect y="50" width="82" height="4" rx="2" fill="#6EC4FF"/>

        <text y="80" fill="#7C8AA0">SCENT</text>
        <text x="120" y="80" fill="#D4B26A" text-anchor="end">Cedar</text>
        <rect y="90" width="120" height="4" rx="2" fill="#11203A"/>
        <rect y="90" width="36" height="4" rx="2" fill="#D4B26A"/>

        <text y="120" fill="#7C8AA0">G-DAMP</text>
        <text x="120" y="120" fill="#E8EEF6" text-anchor="end">Auto</text>
        <rect y="130" width="120" height="4" rx="2" fill="#11203A"/>
        <rect y="130" width="120" height="4" rx="2" fill="#6EC4FF"/>
      </g>

      <!-- preset chips -->
      <g transform="translate(20,240)">
        <g>
          <rect width="100" height="28" rx="14" fill="#11203A" stroke="#2A6B96"/>
          <text x="50" y="19" font-size="11" fill="#6EC4FF" text-anchor="middle">Comfort</text>
        </g>
        <g transform="translate(108,0)">
          <rect width="100" height="28" rx="14" fill="#0A1320" stroke="#243349"/>
          <text x="50" y="19" font-size="11" fill="#7C8AA0" text-anchor="middle">Sleep</text>
        </g>
        <g transform="translate(216,0)">
          <rect width="120" height="28" rx="14" fill="#0A1320" stroke="#243349"/>
          <text x="60" y="19" font-size="11" fill="#7C8AA0" text-anchor="middle">Entertain</text>
        </g>
      </g>
    </g>

    <!-- LIGHTING + AUDIO -->
    <g transform="translate(390,0)">
      <rect x="3" y="6" width="370" height="280" rx="8" fill="#000" opacity="0.4"/>
      <rect width="370" height="280" rx="6" fill="url(#glass)" stroke="#243349"/>
      <path d="M 6 0 H 364 A 6 6 0 0 1 370 6" fill="none" stroke="#5F7A9E"/>
      <text x="20" y="28" class="hdr">Lighting  &amp;  Audio</text>
      <line x1="20" y1="40" x2="350" y2="40" stroke="#243349"/>
      <line x1="20" y1="40" x2="120" y2="40" stroke="#D4B26A" opacity="0.7"/>

      <!-- color temperature slider -->
      <g transform="translate(20,72)">
        <text class="lbl-d" y="0">COLOR  TEMPERATURE</text>
        <g transform="translate(0,14)">
          <rect width="330" height="14" rx="7" fill="url(#cool)"/>
          <rect width="330" height="14" rx="7" fill="url(#warm)" opacity="0.6"/>
          <!-- thumb at warm-side -->
          <g transform="translate(220,7)">
            <circle r="12" fill="#0A1320" stroke="#D4B26A" stroke-width="2"/>
            <circle r="4" fill="#D4B26A"/>
          </g>
        </g>
        <text x="0" y="50" class="chip">2700 K  ·  Warm Amber</text>
      </g>

      <!-- brightness -->
      <g transform="translate(20,138)">
        <text class="lbl-d" y="0">BRIGHTNESS</text>
        <g transform="translate(0,14)">
          <rect width="330" height="6" rx="3" fill="#11203A"/>
          <rect width="198" height="6" rx="3" fill="#D4B26A"/>
          <g transform="translate(198,3)">
            <circle r="10" fill="#0A1320" stroke="#D4B26A" stroke-width="2"/>
            <circle r="3" fill="#D4B26A"/>
          </g>
        </g>
        <text x="330" y="40" class="chip" text-anchor="end">60%</text>
      </g>

      <!-- now playing -->
      <g transform="translate(20,198)">
        <text class="lbl-d" y="0">NOW  PLAYING</text>
        <g transform="translate(0,14)">
          <rect width="48" height="48" rx="4" fill="#1B2D49" stroke="#243349"/>
          <g transform="translate(24,24)" stroke="#D4B26A" stroke-width="1.4" fill="none">
            <circle r="14"/>
            <circle r="3"/>
          </g>
          <text x="60" y="20" font-size="13" fill="#E8EEF6" letter-spacing="2">Symphony No. 9</text>
          <text x="60" y="36" class="chip">Beethoven  ·  Vienna Phil  ·  −12 dB</text>
          <text x="60" y="52" class="chip" fill="#6EC4FF">02 : 41  /  68 : 12</text>
          <!-- track progress -->
          <rect x="60" y="56" width="200" height="2" rx="1" fill="#11203A"/>
          <rect x="60" y="56" width="8" height="2" rx="1" fill="#6EC4FF"/>
        </g>
      </g>
    </g>
  </g>

  <!-- ============== BEVERAGE SERVICE ============== -->
  <g transform="translate(20,684)">
    <rect x="3" y="6" width="500" height="260" rx="8" fill="#000" opacity="0.4"/>
    <rect width="500" height="260" rx="6" fill="url(#glass)" stroke="#243349"/>
    <path d="M 6 0 H 494 A 6 6 0 0 1 500 6" fill="none" stroke="#5F7A9E"/>

    <text x="20" y="28" class="hdr">Beverage  Service</text>
    <text x="480" y="28" class="hdr-gold" text-anchor="end">CONCIERGE  ·  EVA-9</text>
    <line x1="20" y1="40" x2="480" y2="40" stroke="#243349"/>
    <line x1="20" y1="40" x2="160" y2="40" stroke="#D4B26A" opacity="0.7"/>

    <!-- menu grid -->
    <g transform="translate(20,64)">
      <!-- Item 1 -->
      <g>
        <rect width="146" height="76" rx="6" fill="#11203A"/>
        <rect width="146" height="2" rx="1" fill="#D4B26A"/>
        <text x="14" y="22" font-size="9" fill="#D4B26A" letter-spacing="2">SIGNATURE</text>
        <text x="14" y="44" font-size="14" fill="#E8EEF6" letter-spacing="1.5">Old Fashioned</text>
        <text x="14" y="64" class="chip">Aged 12 y  ·  served warm</text>
      </g>
      <g transform="translate(154,0)">
        <rect width="146" height="76" rx="6" fill="url(#glass-soft)" stroke="#243349"/>
        <text x="14" y="22" class="lbl-d">SPARKLING</text>
        <text x="14" y="44" font-size="14" fill="#E8EEF6" letter-spacing="1.5">Terra Brut</text>
        <text x="14" y="64" class="chip">vintage 2937</text>
      </g>
      <g transform="translate(308,0)">
        <rect width="148" height="76" rx="6" fill="url(#glass-soft)" stroke="#243349"/>
        <text x="14" y="22" class="lbl-d">HOT</text>
        <text x="14" y="44" font-size="14" fill="#E8EEF6" letter-spacing="1.5">Hurston Press</text>
        <text x="14" y="64" class="chip">single origin coffee</text>
      </g>

      <g transform="translate(0,86)">
        <rect width="146" height="76" rx="6" fill="url(#glass-soft)" stroke="#243349"/>
        <text x="14" y="22" class="lbl-d">SPIRIT</text>
        <text x="14" y="44" font-size="14" fill="#E8EEF6" letter-spacing="1.5">Cassel Whiskey</text>
        <text x="14" y="64" class="chip">neat  ·  rocks  ·  splash</text>
      </g>
      <g transform="translate(154,86)">
        <rect width="146" height="76" rx="6" fill="url(#glass-soft)" stroke="#243349"/>
        <text x="14" y="22" class="lbl-d">TEA</text>
        <text x="14" y="44" font-size="14" fill="#E8EEF6" letter-spacing="1.5">microTech Green</text>
        <text x="14" y="64" class="chip">88°  ·  3 min</text>
      </g>
      <g transform="translate(308,86)">
        <rect width="148" height="76" rx="6" fill="url(#glass-soft)" stroke="#243349"/>
        <text x="14" y="22" class="lbl-d">STILL</text>
        <text x="14" y="44" font-size="14" fill="#E8EEF6" letter-spacing="1.5">Crusader Spring</text>
        <text x="14" y="64" class="chip">chilled  ·  citrus</text>
      </g>
    </g>

    <!-- send-to + queue -->
    <g transform="translate(20,232)">
      <text class="chip">QUEUE  ·  2 ITEMS</text>
      <g transform="translate(200,-12)">
        <rect width="140" height="22" rx="11" fill="#0A1320" stroke="#243349"/>
        <text x="70" y="15" font-size="10" fill="#7C8AA0" text-anchor="middle" letter-spacing="2">to: Salon A</text>
      </g>
      <g transform="translate(348,-12)">
        <rect width="120" height="22" rx="11" fill="url(#gold)"/>
        <text x="60" y="15" font-size="10" fill="#04070D" text-anchor="middle" letter-spacing="2" font-weight="600">Send</text>
      </g>
    </g>
  </g>

  <!-- ============== VIEW + GUEST MANIFEST ============== -->
  <g transform="translate(540,684)">
    <rect x="3" y="6" width="240" height="260" rx="8" fill="#000" opacity="0.4"/>
    <rect width="240" height="260" rx="6" fill="url(#glass)" stroke="#243349"/>
    <path d="M 6 0 H 234 A 6 6 0 0 1 240 6" fill="none" stroke="#5F7A9E"/>

    <text x="20" y="28" class="hdr">View</text>
    <line x1="20" y1="40" x2="220" y2="40" stroke="#243349"/>
    <line x1="20" y1="40" x2="60" y2="40" stroke="#D4B26A" opacity="0.7"/>

    <!-- viewport preview -->
    <g transform="translate(20,56)">
      <rect width="200" height="100" rx="4" fill="#04070D" stroke="#243349"/>
      <!-- starfield -->
      <g fill="#BFE5FF">
        <circle cx="20" cy="22" r="0.8"/>
        <circle cx="46" cy="40" r="0.6"/>
        <circle cx="72" cy="18" r="1"/>
        <circle cx="98" cy="58" r="0.7"/>
        <circle cx="130" cy="32" r="0.9"/>
        <circle cx="158" cy="68" r="0.7"/>
        <circle cx="180" cy="22" r="1.1"/>
        <circle cx="62" cy="80" r="0.5"/>
        <circle cx="110" cy="14" r="0.6"/>
      </g>
      <!-- planet horizon -->
      <path d="M -20 100 A 220 220 0 0 1 220 100" fill="#1B2D49" opacity="0.7"/>
      <path d="M -20 100 A 220 220 0 0 1 220 100" fill="none" stroke="#D4B26A" stroke-width="0.5" opacity="0.6"/>
      <text x="100" y="76" font-size="9" fill="#D4B26A" text-anchor="middle" letter-spacing="2">HURSTON</text>
    </g>

    <!-- view chips -->
    <g transform="translate(20,170)">
      <g>
        <rect width="60" height="22" rx="11" fill="#11203A" stroke="#2A6B96"/>
        <text x="30" y="15" font-size="10" fill="#6EC4FF" text-anchor="middle">Forward</text>
      </g>
      <g transform="translate(64,0)">
        <rect width="48" height="22" rx="11" fill="#0A1320" stroke="#243349"/>
        <text x="24" y="15" font-size="10" fill="#7C8AA0" text-anchor="middle">Aft</text>
      </g>
      <g transform="translate(116,0)">
        <rect width="48" height="22" rx="11" fill="#0A1320" stroke="#243349"/>
        <text x="24" y="15" font-size="10" fill="#7C8AA0" text-anchor="middle">Salon</text>
      </g>
      <g transform="translate(168,0)">
        <rect width="52" height="22" rx="11" fill="#0A1320" stroke="#243349"/>
        <text x="26" y="15" font-size="10" fill="#7C8AA0" text-anchor="middle">Cabin A</text>
      </g>
    </g>

    <!-- shade -->
    <g transform="translate(20,206)">
      <text class="lbl-d" y="0">SHADE  ·  35%</text>
      <rect y="10" width="200" height="4" rx="2" fill="#11203A"/>
      <rect y="10" width="70" height="4" rx="2" fill="#D4B26A"/>
    </g>
  </g>

  <!-- ============== GUEST MANIFEST ============== -->
  <g transform="translate(20,964)">
    <rect x="3" y="6" width="760" height="160" rx="8" fill="#000" opacity="0.4"/>
    <rect width="760" height="160" rx="6" fill="url(#glass)" stroke="#243349"/>
    <path d="M 6 0 H 754 A 6 6 0 0 1 760 6" fill="none" stroke="#5F7A9E"/>
    <text x="20" y="28" class="hdr">Manifest</text>
    <text x="744" y="28" class="hdr-gold" text-anchor="end">04  GUESTS  ·  02  CREW</text>
    <line x1="20" y1="40" x2="744" y2="40" stroke="#243349"/>
    <line x1="20" y1="40" x2="80" y2="40" stroke="#D4B26A" opacity="0.7"/>

    <g transform="translate(20,64)">
      <!-- guest cards -->
      <g>
        <rect width="172" height="78" rx="6" fill="#11203A" stroke="#243349"/>
        <rect width="2" height="78" fill="#D4B26A"/>
        <circle cx="36" cy="28" r="14" fill="#1B2D49" stroke="#5F7A9E"/>
        <text x="36" y="32" font-size="11" fill="#BFE5FF" text-anchor="middle" font-weight="600">SK</text>
        <text x="58" y="26" font-size="12" fill="#E8EEF6" letter-spacing="2">Mr Kavari</text>
        <text x="58" y="44" class="chip">Cabin A  ·  VIP</text>
        <circle cx="158" cy="64" r="3" fill="#6EC4FF"/>
        <text x="58" y="64" class="chip">Now in Salon</text>
      </g>
      <g transform="translate(184,0)">
        <rect width="172" height="78" rx="6" fill="url(#glass-soft)" stroke="#243349"/>
        <circle cx="36" cy="28" r="14" fill="#1B2D49" stroke="#243349"/>
        <text x="36" y="32" font-size="11" fill="#7C8AA0" text-anchor="middle" font-weight="600">LM</text>
        <text x="58" y="26" font-size="12" fill="#E8EEF6" letter-spacing="2">Ms Mendez</text>
        <text x="58" y="44" class="chip">Cabin B</text>
        <circle cx="158" cy="64" r="3" fill="#54627A"/>
        <text x="58" y="64" class="chip">Resting</text>
      </g>
      <g transform="translate(368,0)">
        <rect width="172" height="78" rx="6" fill="url(#glass-soft)" stroke="#243349"/>
        <circle cx="36" cy="28" r="14" fill="#1B2D49" stroke="#243349"/>
        <text x="36" y="32" font-size="11" fill="#7C8AA0" text-anchor="middle" font-weight="600">RV</text>
        <text x="58" y="26" font-size="12" fill="#E8EEF6" letter-spacing="2">Mr Voss</text>
        <text x="58" y="44" class="chip">Cabin C</text>
        <circle cx="158" cy="64" r="3" fill="#6EC4FF"/>
        <text x="58" y="64" class="chip">Observation</text>
      </g>
      <g transform="translate(552,0)">
        <rect width="172" height="78" rx="6" fill="url(#glass-soft)" stroke="#243349"/>
        <circle cx="36" cy="28" r="14" fill="#1B2D49" stroke="#243349"/>
        <text x="36" y="32" font-size="11" fill="#7C8AA0" text-anchor="middle" font-weight="600">JD</text>
        <text x="58" y="26" font-size="12" fill="#E8EEF6" letter-spacing="2">Ms Dorne</text>
        <text x="58" y="44" class="chip">Cabin D</text>
        <circle cx="158" cy="64" r="3" fill="#FFB454"/>
        <text x="58" y="64" class="chip">Service requested</text>
      </g>
    </g>
  </g>

  <!-- ============== BOTTOM TAB BAR ============== -->
  <g transform="translate(20,1144)">
    <line y1="0" x2="760" y2="0" stroke="#243349"/>
    <g font-size="12" letter-spacing="3">
      <text x="0" y="28" fill="#7C8AA0">Navigation</text>
      <text x="160" y="28" fill="#7C8AA0">Comfort</text>
      <text x="290" y="28" fill="#7C8AA0">Sensors</text>
      <text x="420" y="28" fill="#E8EEF6">Salon</text>
      <text x="540" y="28" fill="#7C8AA0">Crew</text>
      <text x="640" y="28" fill="#7C8AA0">Settings</text>
    </g>
    <line x1="410" y1="44" x2="490" y2="44" stroke="#D4B26A" stroke-width="2"/>
  </g>

  <g transform="translate(0,1264)">
    <rect width="800" height="16" fill="#070D17"/>
    <line y1="0" x2="800" y2="0" stroke="#243349"/>
    <line x1="0" y1="0" x2="800" y2="0" stroke="#D4B26A" opacity="0.4" stroke-dasharray="160 640"/>
  </g>
</svg>
