<?xml version="1.0" encoding="UTF-8"?>
<svg xmlns="http://www.w3.org/2000/svg" viewBox="0 0 800 1280" width="800" height="1280" font-family="ui-monospace, 'JetBrains Mono', Menlo, Consolas, monospace">
  <!-- =========================================================
       MOCKUP · SENSORS  ·  Origin 380 Jump  ·  800 × 1280
       Long-range exploration scan / signature analysis
       ========================================================= -->
  <defs>
    <linearGradient id="glass" x1="0" y1="0" x2="0" y2="1">
      <stop offset="0%"  stop-color="#142540"/>
      <stop offset="6%"  stop-color="#0E1B2E"/>
      <stop offset="100%" stop-color="#070D17"/>
    </linearGradient>
    <linearGradient id="glass-soft" x1="0" y1="0" x2="0" y2="1">
      <stop offset="0%"  stop-color="#1B2D49"/>
      <stop offset="100%" stop-color="#0A1320"/>
    </linearGradient>
    <linearGradient id="gold" x1="0" y1="0" x2="0" y2="1">
      <stop offset="0%"  stop-color="#F3DC9C"/>
      <stop offset="50%" stop-color="#D4B26A"/>
      <stop offset="100%" stop-color="#7A5E2B"/>
    </linearGradient>
    <radialGradient id="pageglow" cx="50%" cy="15%" r="80%">
      <stop offset="0%" stop-color="#0E1A2E" stop-opacity="0.7"/>
      <stop offset="100%" stop-color="#04070D" stop-opacity="0"/>
    </radialGradient>

    <!-- Scope sweep gradient -->
    <linearGradient id="sweep" x1="0" y1="0" x2="1" y2="0">
      <stop offset="0%"  stop-color="#6EC4FF" stop-opacity="0"/>
      <stop offset="100%" stop-color="#6EC4FF" stop-opacity="0.45"/>
    </linearGradient>

    <filter id="iceglow" x="-50%" y="-50%" width="200%" height="200%">
      <feGaussianBlur stdDeviation="3" result="b"/>
      <feMerge><feMergeNode in="b"/><feMergeNode in="SourceGraphic"/></feMerge>
    </filter>

    <style>
      .lbl       { font-size: 11px; fill: #7C8AA0; letter-spacing: 3px; }
      .lbl-d     { font-size: 10px; fill: #54627A; letter-spacing: 2.5px; }
      .hdr       { font-size: 13px; fill: #E8EEF6; letter-spacing: 5px; font-weight: 400; }
      .hdr-gold  { font-size: 11px; fill: #D4B26A; letter-spacing: 4px; }
      .num       { font-size: 22px; fill: #BFE5FF; font-weight: 600; letter-spacing: 1px; }
      .num-d     { font-size: 14px; fill: #54627A; letter-spacing: 1px; }
      .big       { font-size: 56px; fill: #E8EEF6; font-weight: 300; letter-spacing: 2px; }
      .big-ice   { font-size: 56px; fill: #6EC4FF; font-weight: 300; letter-spacing: 2px; }
      .chip      { font-size: 9px; fill: #54627A; letter-spacing: 1px; }
      .warn      { fill: #FF5A6A; }
      .amber     { fill: #FFB454; }
    </style>
  </defs>

  <rect width="800" height="1280" fill="#04070D"/>
  <rect width="800" height="1280" fill="url(#pageglow)"/>

  <!-- ============== TOP BAR ============== -->
  <g>
    <rect width="800" height="64" fill="#070D17"/>
    <line x1="0" y1="64" x2="800" y2="64" stroke="#243349"/>
    <line x1="0" y1="63" x2="800" y2="63" stroke="#5F7A9E" opacity="0.4"/>
    <rect x="0" y="60" width="800" height="1" fill="#D4B26A" opacity="0.7"/>
    <g transform="translate(24,30)">
      <circle r="11" fill="none" stroke="url(#gold)" stroke-width="1.5"/>
      <circle r="3" fill="#D4B26A"/>
    </g>
    <text x="48" y="28" class="hdr">ORIGIN  ·  380  JUMP</text>
    <text x="48" y="46" class="hdr-gold">Sensors  ·  Long-Range Scan</text>
    <g transform="translate(776,28)" text-anchor="end">
      <text class="hdr">21 : 12 : 04</text>
      <text y="18" class="chip">PYRO  ·  STANTON-JUMP</text>
    </g>
  </g>

  <!-- ============== HERO  ·  SCAN SCOPE ============== -->
  <g transform="translate(20,84)">
    <rect x="3" y="6" width="760" height="440" rx="8" fill="#000" opacity="0.4"/>
    <rect width="760" height="440" rx="6" fill="url(#glass)" stroke="#243349"/>
    <path d="M 6 0 H 754 A 6 6 0 0 1 760 6" fill="none" stroke="#5F7A9E"/>
    <path d="M 6 1.5 H 754" stroke="#BFE5FF" stroke-width="0.5" opacity="0.5"/>

    <rect x="20" y="20" width="2" height="40" fill="url(#gold)"/>
    <text x="36" y="36" class="hdr">Scan  Scope</text>
    <text x="36" y="56" class="hdr-gold">RANGE  ·  12.8 Mm  ·  PASSIVE</text>
    <text x="744" y="36" class="lbl-d" text-anchor="end">CONTACTS  ·  06</text>
    <text x="744" y="56" class="lbl-d" text-anchor="end">SIG  ·  CL  /  EM  /  IR</text>

    <!-- Big circular scope -->
    <g transform="translate(380,240)">
      <!-- outer ring -->
      <circle r="172" fill="#070D17" stroke="#243349"/>
      <!-- inner rings -->
      <circle r="130" fill="none" stroke="#11203A"/>
      <circle r="86"  fill="none" stroke="#11203A"/>
      <circle r="42"  fill="none" stroke="#11203A"/>
      <!-- gold mid -->
      <circle r="172" fill="none" stroke="#D4B26A" stroke-width="0.6" opacity="0.4"/>
      <!-- cross -->
      <line x1="-172" y1="0" x2="172" y2="0" stroke="#11203A"/>
      <line x1="0" y1="-172" x2="0" y2="172" stroke="#11203A"/>
      <!-- bearing ticks every 30° -->
      <g stroke="#54627A" stroke-width="0.6">
        <line x1="0" y1="-172" x2="0" y2="-164"/>
        <line transform="rotate(30)"  x1="0" y1="-172" x2="0" y2="-164"/>
        <line transform="rotate(60)"  x1="0" y1="-172" x2="0" y2="-164"/>
        <line transform="rotate(90)"  x1="0" y1="-172" x2="0" y2="-164"/>
        <line transform="rotate(120)" x1="0" y1="-172" x2="0" y2="-164"/>
        <line transform="rotate(150)" x1="0" y1="-172" x2="0" y2="-164"/>
        <line transform="rotate(180)" x1="0" y1="-172" x2="0" y2="-164"/>
        <line transform="rotate(210)" x1="0" y1="-172" x2="0" y2="-164"/>
        <line transform="rotate(240)" x1="0" y1="-172" x2="0" y2="-164"/>
        <line transform="rotate(270)" x1="0" y1="-172" x2="0" y2="-164"/>
        <line transform="rotate(300)" x1="0" y1="-172" x2="0" y2="-164"/>
        <line transform="rotate(330)" x1="0" y1="-172" x2="0" y2="-164"/>
      </g>
      <!-- bearing labels (cardinal only, Origin doesn't shout) -->
      <g font-size="9" fill="#54627A" letter-spacing="1" text-anchor="middle">
        <text x="0" y="-180">000</text>
        <text x="184" y="3">090</text>
        <text x="0" y="190">180</text>
        <text x="-184" y="3">270</text>
      </g>

      <!-- slow sweep (rendered static here) -->
      <g transform="rotate(-42)">
        <path d="M 0 0 L 0 -172 A 172 172 0 0 1 148 -88 Z" fill="url(#sweep)"/>
        <line x1="0" y1="0" x2="0" y2="-172" stroke="#BFE5FF" stroke-width="1" opacity="0.85"/>
      </g>

      <!-- contacts -->
      <g>
        <!-- selected contact -->
        <g transform="translate(86,-46)" filter="url(#iceglow)">
          <circle r="6" fill="none" stroke="#D4B26A" stroke-width="1.5"/>
          <circle r="2" fill="#D4B26A"/>
        </g>
        <g transform="translate(86,-46)" font-size="9" fill="#D4B26A" letter-spacing="2">
          <line x1="6" y1="0" x2="22" y2="-12" stroke="#D4B26A" opacity="0.6"/>
          <text x="24" y="-13">DERELICT</text>
          <text x="24" y="-1">6.2 Mm</text>
        </g>

        <g transform="translate(-58,28)">
          <circle r="3" fill="#6EC4FF"/>
        </g>
        <g transform="translate(-58,28)" font-size="9" fill="#6EC4FF">
          <text x="6" y="2">CARGO  ·  CIV</text>
        </g>

        <g transform="translate(124,76)">
          <circle r="3" fill="#6EC4FF"/>
        </g>
        <g transform="translate(124,76)" font-size="9" fill="#6EC4FF">
          <text x="6" y="2">FREIGHTER</text>
        </g>

        <g transform="translate(-118,-62)">
          <circle r="3" fill="#6EC4FF"/>
        </g>

        <g transform="translate(40,118)">
          <polygon points="0,-5 5,4 -5,4" fill="#FFB454"/>
        </g>
        <g transform="translate(40,118)" font-size="9" fill="#FFB454">
          <text x="8" y="3">SIG  ·  ANOMALY</text>
        </g>

        <g transform="translate(-138,108)">
          <circle r="3" fill="#FF5A6A"/>
        </g>
        <g transform="translate(-138,108)" font-size="9" fill="#FF5A6A">
          <text x="6" y="2">UNKNOWN</text>
        </g>
      </g>

      <!-- ship at center -->
      <circle r="3" fill="#BFE5FF"/>
      <circle r="14" fill="none" stroke="#6EC4FF" stroke-width="0.5" stroke-dasharray="2 2"/>
    </g>

    <!-- Range stepper bottom-left -->
    <g transform="translate(36,388)">
      <text class="lbl-d" y="0">RANGE  ·  Mm</text>
      <g transform="translate(0,8)">
        <rect width="180" height="32" rx="6" fill="#0A1320" stroke="#243349"/>
        <line x1="40" y1="0" x2="40" y2="32" stroke="#243349"/>
        <line x1="140" y1="0" x2="140" y2="32" stroke="#243349"/>
        <text x="20" y="22" font-size="13" fill="#6EC4FF" text-anchor="middle">−</text>
        <text x="90" y="22" font-size="12" fill="#E8EEF6" text-anchor="middle" letter-spacing="2">12.8</text>
        <text x="160" y="22" font-size="13" fill="#6EC4FF" text-anchor="middle">+</text>
      </g>
    </g>

    <!-- Mode pills bottom-right -->
    <g transform="translate(560,388)">
      <text class="lbl-d" y="0" text-anchor="end" x="160">MODE</text>
      <g transform="translate(0,8)">
        <rect width="50" height="32" rx="6" fill="#11203A" stroke="#2A6B96"/>
        <text x="25" y="20" font-size="11" fill="#6EC4FF" text-anchor="middle">PAS</text>
        <g transform="translate(56,0)">
          <rect width="50" height="32" rx="6" fill="#0A1320" stroke="#243349"/>
          <text x="25" y="20" font-size="11" fill="#7C8AA0" text-anchor="middle">ACT</text>
        </g>
        <g transform="translate(112,0)">
          <rect width="68" height="32" rx="6" fill="#0A1320" stroke="#243349"/>
          <text x="34" y="20" font-size="11" fill="#7C8AA0" text-anchor="middle">FOCUS</text>
        </g>
      </g>
    </g>
  </g>

  <!-- ============== CONTACT DOSSIER + COMPOSITION ============== -->
  <g transform="translate(20,544)">
    <!-- LEFT: DOSSIER -->
    <g>
      <rect x="3" y="6" width="460" height="320" rx="8" fill="#000" opacity="0.4"/>
      <rect width="460" height="320" rx="6" fill="url(#glass)" stroke="#243349"/>
      <path d="M 6 0 H 454 A 6 6 0 0 1 460 6" fill="none" stroke="#5F7A9E"/>

      <text x="20" y="28" class="hdr">Selected  Contact</text>
      <text x="440" y="28" class="hdr-gold" text-anchor="end">DOSSIER</text>
      <line x1="20" y1="40" x2="440" y2="40" stroke="#243349"/>
      <line x1="20" y1="40" x2="120" y2="40" stroke="#D4B26A" opacity="0.7"/>

      <!-- Designator -->
      <g transform="translate(20,72)">
        <text class="lbl-d" y="0">DESIGNATOR</text>
        <text font-size="22" fill="#D4B26A" y="26" letter-spacing="3" font-weight="600">SX-04  DERELICT</text>
      </g>

      <!-- Stats grid -->
      <g transform="translate(20,124)" font-size="11" letter-spacing="2">
        <text fill="#7C8AA0">RANGE</text>     <text x="200" fill="#E8EEF6" text-anchor="end">6.21 Mm</text>
        <text y="22" fill="#7C8AA0">BEARING</text>   <text x="200" y="22" fill="#E8EEF6" text-anchor="end">042  ·  −18</text>
        <text y="44" fill="#7C8AA0">CLASS</text>     <text x="200" y="44" fill="#E8EEF6" text-anchor="end">CAPITAL  ·  CIV</text>
        <text y="66" fill="#7C8AA0">VECTOR</text>    <text x="200" y="66" fill="#E8EEF6" text-anchor="end">DRIFT  ·  3.2 m/s</text>
        <text y="88" fill="#7C8AA0">IFF</text>       <text x="200" y="88" fill="#FFB454" text-anchor="end">NO SIGNAL</text>
        <text y="110" fill="#7C8AA0">AGE</text>      <text x="200" y="110" fill="#E8EEF6" text-anchor="end">~ 14 d  ·  est</text>
      </g>

      <!-- Signature triple bar -->
      <g transform="translate(240,124)">
        <text class="lbl-d" y="0">SIGNATURE</text>
        <g transform="translate(0,16)" font-size="9" fill="#7C8AA0" letter-spacing="2">
          <text>CL</text>
          <rect x="30" y="-9" width="150" height="6" rx="3" fill="#11203A"/>
          <rect x="30" y="-9" width="42" height="6" rx="3" fill="#6EC4FF"/>

          <text y="22">EM</text>
          <rect x="30" y="13" width="150" height="6" rx="3" fill="#11203A"/>
          <rect x="30" y="13" width="116" height="6" rx="3" fill="#6EC4FF"/>

          <text y="44">IR</text>
          <rect x="30" y="35" width="150" height="6" rx="3" fill="#11203A"/>
          <rect x="30" y="35" width="22" height="6" rx="3" fill="#6EC4FF"/>
        </g>
        <text x="0" y="88" class="chip">cross-spectrum match  ·  86%</text>

        <!-- ping return waveform -->
        <g transform="translate(0,104)">
          <text class="lbl-d" y="0">PING  RETURN</text>
          <g transform="translate(0,14)" stroke="#6EC4FF" fill="none" stroke-width="1">
            <rect x="0" y="-1" width="180" height="40" rx="3" fill="#0A1320" stroke="#243349"/>
            <path d="M 6 20 L 14 20 L 18 12 L 22 28 L 26 8 L 30 24 L 36 18 L 44 20 L 52 22 L 56 14 L 62 26 L 68 18 L 74 20 L 82 20 L 88 12 L 94 22 L 100 18 L 110 20 L 118 22 L 124 16 L 132 24 L 138 20 L 148 20 L 156 14 L 162 22 L 168 20 L 174 20"/>
          </g>
        </g>
      </g>

      <!-- Action buttons -->
      <g transform="translate(20,272)">
        <g>
          <rect width="130" height="36" rx="6" fill="#0A1320" stroke="#243349"/>
          <text x="65" y="23" font-size="11" fill="#7C8AA0" text-anchor="middle" letter-spacing="3">Mark</text>
        </g>
        <g transform="translate(140,0)">
          <rect width="130" height="36" rx="6" fill="#0A1320" stroke="#243349"/>
          <text x="65" y="23" font-size="11" fill="#7C8AA0" text-anchor="middle" letter-spacing="3">Plot To</text>
        </g>
        <g transform="translate(280,0)">
          <rect width="140" height="36" rx="6" fill="url(#gold)"/>
          <text x="70" y="23" font-size="11" fill="#04070D" text-anchor="middle" letter-spacing="3" font-weight="600">Focus Scan</text>
        </g>
      </g>
    </g>

    <!-- RIGHT: COMPOSITION -->
    <g transform="translate(480,0)">
      <rect x="3" y="6" width="300" height="320" rx="8" fill="#000" opacity="0.4"/>
      <rect width="300" height="320" rx="6" fill="url(#glass)" stroke="#243349"/>
      <path d="M 6 0 H 294 A 6 6 0 0 1 300 6" fill="none" stroke="#5F7A9E"/>

      <text x="20" y="28" class="hdr">Composition</text>
      <line x1="20" y1="40" x2="280" y2="40" stroke="#243349"/>
      <line x1="20" y1="40" x2="80" y2="40" stroke="#D4B26A" opacity="0.7"/>

      <!-- Donut chart -->
      <g transform="translate(150,142)">
        <!-- background donut -->
        <circle r="64" fill="none" stroke="#11203A" stroke-width="16"/>
        <!-- segments: hydrogen 38%, iron 22%, titanium 18%, rare 12%, unknown 10% -->
        <!-- circumference = 2*pi*64 = 402.12 -->
        <circle r="64" fill="none" stroke="#6EC4FF" stroke-width="16"
                stroke-dasharray="153 250" transform="rotate(-90)"/>
        <circle r="64" fill="none" stroke="#BFE5FF" stroke-width="16"
                stroke-dasharray="88 314" stroke-dashoffset="-153" transform="rotate(-90)"/>
        <circle r="64" fill="none" stroke="#D4B26A" stroke-width="16"
                stroke-dasharray="72 330" stroke-dashoffset="-241" transform="rotate(-90)"/>
        <circle r="64" fill="none" stroke="#FFB454" stroke-width="16"
                stroke-dasharray="48 354" stroke-dashoffset="-313" transform="rotate(-90)"/>
        <circle r="64" fill="none" stroke="#54627A" stroke-width="16"
                stroke-dasharray="40 362" stroke-dashoffset="-361" transform="rotate(-90)"/>
        <text y="-2" font-size="22" fill="#E8EEF6" text-anchor="middle" font-weight="300">5 kt</text>
        <text y="14" class="chip" text-anchor="middle">est. mass</text>
      </g>

      <!-- Legend -->
      <g transform="translate(20,232)" font-size="10" fill="#7C8AA0" letter-spacing="2">
        <g><rect width="6" height="6" fill="#6EC4FF"/><text x="14" y="6">Hydrogen   38%</text></g>
        <g transform="translate(0,16)"><rect width="6" height="6" fill="#BFE5FF"/><text x="14" y="6">Iron       22%</text></g>
        <g transform="translate(0,32)"><rect width="6" height="6" fill="#D4B26A"/><text x="14" y="6">Titanium   18%</text></g>
        <g transform="translate(150,0)"><rect width="6" height="6" fill="#FFB454"/><text x="14" y="6">Rare       12%</text></g>
        <g transform="translate(150,16)"><rect width="6" height="6" fill="#54627A"/><text x="14" y="6">Unknown    10%</text></g>
      </g>
    </g>
  </g>

  <!-- ============== SIGNAL LOG ============== -->
  <g transform="translate(20,884)">
    <rect x="3" y="6" width="760" height="220" rx="8" fill="#000" opacity="0.4"/>
    <rect width="760" height="220" rx="6" fill="url(#glass)" stroke="#243349"/>
    <path d="M 6 0 H 754 A 6 6 0 0 1 760 6" fill="none" stroke="#5F7A9E"/>

    <text x="20" y="28" class="hdr">Signal  Log</text>
    <text x="744" y="28" class="hdr-gold" text-anchor="end">LAST  20  MIN</text>
    <line x1="20" y1="40" x2="744" y2="40" stroke="#243349"/>
    <line x1="20" y1="40" x2="92" y2="40" stroke="#D4B26A" opacity="0.7"/>

    <!-- header row -->
    <g transform="translate(20,64)" font-size="9" fill="#54627A" letter-spacing="2">
      <text>TIME</text>
      <text x="90">CONTACT</text>
      <text x="290">CLASS</text>
      <text x="430">RANGE</text>
      <text x="540">SIG</text>
      <text x="720" text-anchor="end">ACT</text>
    </g>
    <line x1="20" y1="72" x2="744" y2="72" stroke="#243349"/>

    <g transform="translate(20,94)" font-size="11" fill="#E8EEF6" letter-spacing="1.5">
      <g>
        <rect x="-8" y="-14" width="728" height="22" rx="3" fill="#11203A"/>
        <rect x="-8" y="-14" width="2" height="22" fill="#D4B26A"/>
        <text>21:11:42</text>
        <text x="90">SX-04  DERELICT</text>
        <text x="290" fill="#D4B26A">CAPITAL · CIV</text>
        <text x="430">6.21 Mm</text>
        <text x="540" fill="#6EC4FF">CL+EM+IR</text>
        <text x="720" text-anchor="end" fill="#D4B26A">FOCUSED</text>
      </g>
      <g transform="translate(0,24)">
        <text fill="#7C8AA0">21:09:18</text>
        <text x="90" fill="#7C8AA0">CG-117</text>
        <text x="290" fill="#7C8AA0">FREIGHTER</text>
        <text x="430" fill="#7C8AA0">9.84 Mm</text>
        <text x="540" fill="#6EC4FF">EM</text>
        <text x="720" text-anchor="end" fill="#54627A">—</text>
      </g>
      <g transform="translate(0,48)">
        <text fill="#7C8AA0">21:06:04</text>
        <text x="90" fill="#7C8AA0">UNK-22</text>
        <text x="290" fill="#FFB454">ANOMALY</text>
        <text x="430" fill="#7C8AA0">11.2 Mm</text>
        <text x="540" fill="#FFB454">IR  faint</text>
        <text x="720" text-anchor="end" fill="#7C8AA0">MARKED</text>
      </g>
      <g transform="translate(0,72)">
        <text fill="#7C8AA0">21:02:30</text>
        <text x="90" fill="#7C8AA0">CIV-088</text>
        <text x="290" fill="#7C8AA0">CARGO · CIV</text>
        <text x="430" fill="#7C8AA0">4.10 Mm</text>
        <text x="540" fill="#6EC4FF">EM</text>
        <text x="720" text-anchor="end" fill="#54627A">—</text>
      </g>
      <g transform="translate(0,96)">
        <text fill="#7C8AA0">20:58:12</text>
        <text x="90" fill="#FF5A6A">UNKNOWN</text>
        <text x="290" fill="#FF5A6A">— · jammed</text>
        <text x="430" fill="#7C8AA0">12.8 Mm</text>
        <text x="540" fill="#FF5A6A">EM  spike</text>
        <text x="720" text-anchor="end" fill="#7C8AA0">LOGGED</text>
      </g>
    </g>
  </g>

  <!-- ============== BOTTOM TAB BAR ============== -->
  <g transform="translate(20,1124)">
    <line y1="0" x2="760" y2="0" stroke="#243349"/>
    <g font-size="12" letter-spacing="3">
      <text x="0" y="28" fill="#7C8AA0">Navigation</text>
      <text x="160" y="28" fill="#7C8AA0">Comfort</text>
      <text x="290" y="28" fill="#E8EEF6">Sensors</text>
      <text x="420" y="28" fill="#7C8AA0">Salon</text>
      <text x="540" y="28" fill="#7C8AA0">Crew</text>
      <text x="640" y="28" fill="#7C8AA0">Settings</text>
    </g>
    <line x1="280" y1="44" x2="392" y2="44" stroke="#D4B26A" stroke-width="2"/>
  </g>

  <!-- ============== ADVISORY ============== -->
  <g transform="translate(20,1192)">
    <rect width="760" height="56" rx="6" fill="url(#glass)" stroke="#243349"/>
    <path d="M 6 0 H 754 A 6 6 0 0 1 760 6" fill="none" stroke="#5F7A9E"/>
    <rect width="4" height="56" rx="2" fill="#6EC4FF"/>
    <g transform="translate(30,28)" fill="none" stroke="#6EC4FF" stroke-width="1.6">
      <circle r="11"/>
      <line x1="0" y1="-5" x2="0" y2="3"/>
      <circle cy="7" r="1" fill="#6EC4FF" stroke="none"/>
    </g>
    <text x="54" y="26" font-size="13" fill="#E8EEF6" letter-spacing="2">Focused scan of SX-04 in progress  ·  est. 2 m 18 s</text>
    <text x="54" y="44" class="chip">Composition refinement will improve while contact remains in scope</text>
    <text x="744" y="34" class="chip" text-anchor="end">PAUSE  →</text>
  </g>

  <g transform="translate(0,1264)">
    <rect width="800" height="16" fill="#070D17"/>
    <line y1="0" x2="800" y2="0" stroke="#243349"/>
    <line x1="0" y1="0" x2="800" y2="0" stroke="#D4B26A" opacity="0.4" stroke-dasharray="160 640"/>
  </g>
</svg>
