<?xml version="1.0" encoding="UTF-8"?>
<svg xmlns="http://www.w3.org/2000/svg" viewBox="0 0 1280 1700" width="1280" height="1700" font-family="ui-monospace, 'JetBrains Mono', Menlo, Consolas, monospace">
  <!-- =========================================================
       ORIGIN LUX  ·  Sprite Sheet  v0.1
       For Origin Jumpworks 380 Jump aesthetic
       ========================================================= -->
  <defs>
    <!-- Glass panel gradient: top-light, bottom-darker -->
    <linearGradient id="glass" x1="0" y1="0" x2="0" y2="1">
      <stop offset="0%"  stop-color="#142540"/>
      <stop offset="6%"  stop-color="#0E1B2E"/>
      <stop offset="100%" stop-color="#070D17"/>
    </linearGradient>

    <linearGradient id="glass-soft" x1="0" y1="0" x2="0" y2="1">
      <stop offset="0%"  stop-color="#1B2D49"/>
      <stop offset="100%" stop-color="#0A1320"/>
    </linearGradient>

    <!-- Brushed aluminium trim -->
    <linearGradient id="alu" x1="0" y1="0" x2="0" y2="1">
      <stop offset="0%"  stop-color="#8FA2BC"/>
      <stop offset="50%" stop-color="#3E516D"/>
      <stop offset="100%" stop-color="#1A2436"/>
    </linearGradient>

    <!-- Gold trim -->
    <linearGradient id="gold" x1="0" y1="0" x2="0" y2="1">
      <stop offset="0%"  stop-color="#F3DC9C"/>
      <stop offset="50%" stop-color="#D4B26A"/>
      <stop offset="100%" stop-color="#7A5E2B"/>
    </linearGradient>

    <!-- Ice glow for active elements (cheap: short blur on small icon-sized sprites only) -->
    <filter id="iceglow" x="-50%" y="-50%" width="200%" height="200%">
      <feGaussianBlur stdDeviation="2.5" result="blur"/>
      <feMerge>
        <feMergeNode in="blur"/>
        <feMergeNode in="SourceGraphic"/>
      </feMerge>
    </filter>

    <!-- Subtle top-edge highlight: 1px bright line. Provided as symbol for reuse. -->
    <symbol id="top-edge" overflow="visible">
      <line x1="0" y1="0" x2="100%" y2="0" stroke="#5F7A9E" stroke-width="1" opacity="0.6"/>
      <line x1="0" y1="1" x2="100%" y2="1" stroke="#BFE5FF" stroke-width="0.5" opacity="0.35"/>
    </symbol>

    <!-- Rounded corner badge / pill helpers -->
    <symbol id="pulse-dot" overflow="visible">
      <circle r="6" fill="#6EC4FF" opacity="0.35"/>
      <circle r="3" fill="#BFE5FF"/>
    </symbol>

    <!-- Reusable panel: parametric via use+symbol isn't sized in plain SVG;
         redraw per panel. -->

    <style>
      .lbl       { font-size: 11px; fill: #7C8AA0; letter-spacing: 3px; }
      .lbl-d     { font-size: 10px; fill: #54627A; letter-spacing: 2.5px; }
      .hdr       { font-size: 14px; fill: #E8EEF6; letter-spacing: 5px; font-weight: 400; }
      .hdr-gold  { font-size: 12px; fill: #D4B26A; letter-spacing: 4px; }
      .num       { font-size: 26px; fill: #BFE5FF; font-weight: 600; letter-spacing: 1px; }
      .num-d     { font-size: 16px; fill: #54627A; letter-spacing: 1px; }
      .big       { font-size: 56px; fill: #E8EEF6; font-weight: 300; letter-spacing: 2px; }
      .big-ice   { font-size: 56px; fill: #6EC4FF; font-weight: 300; letter-spacing: 2px; }
      .mono      { font-size: 13px; fill: #6EC4FF; letter-spacing: 1.5px; }
      .mono-d    { font-size: 13px; fill: #54627A; letter-spacing: 1.5px; }
      .chip      { font-size: 9px; fill: #54627A; letter-spacing: 1px; }
      .warn      { fill: #FF5A6A; }
      .amber     { fill: #FFB454; }
      .gold-fill { fill: #D4B26A; }
    </style>
  </defs>

  <!-- ===== Page background ===== -->
  <rect width="1280" height="1700" fill="#04070D"/>
  <!-- faint radial wash to suggest interior lighting -->
  <defs>
    <radialGradient id="pageglow" cx="50%" cy="20%" r="70%">
      <stop offset="0%" stop-color="#0E1A2E" stop-opacity="0.6"/>
      <stop offset="100%" stop-color="#04070D" stop-opacity="0"/>
    </radialGradient>
  </defs>
  <rect width="1280" height="1700" fill="url(#pageglow)"/>

  <!-- ===== Title bar ===== -->
  <g>
    <rect width="1280" height="72" fill="#070D17"/>
    <line x1="0" y1="72" x2="1280" y2="72" stroke="#243349"/>
    <line x1="0" y1="71" x2="1280" y2="71" stroke="#5F7A9E" opacity="0.35"/>
    <!-- gold rule -->
    <rect x="0" y="68" width="1280" height="1" fill="#D4B26A" opacity="0.7"/>
    <text x="32" y="42" class="hdr">ORIGIN  ·  LUX  ·  UI  KIT  v0.1</text>
    <text x="32" y="60" class="hdr-gold">Designed for Origin Jumpworks 380 Jump</text>
    <g transform="translate(1248,32)" text-anchor="end">
      <text class="hdr">SC-TERM  ·  CONCEPT</text>
      <text y="20" class="chip">EVE  ·  v0.1</text>
    </g>
  </g>

  <!-- =================================================================
       SECTION: PALETTE
       ================================================================= -->
  <g transform="translate(32,108)">
    <text class="hdr-gold" y="0">PALETTE</text>
    <g transform="translate(0,16)">
      <g font-size="9" fill="#54627A">
        <g transform="translate(0,0)">    <rect width="84" height="56" rx="4" fill="#04070D" stroke="#243349"/><text x="6" y="48" fill="#E8EEF6">bg-night</text></g>
        <g transform="translate(92,0)">   <rect width="84" height="56" rx="4" fill="#0A1320"/><text x="6" y="48" fill="#E8EEF6">bg-glass</text></g>
        <g transform="translate(184,0)">  <rect width="84" height="56" rx="4" fill="#11203A"/><text x="6" y="48" fill="#E8EEF6">bg-glass-2</text></g>
        <g transform="translate(276,0)">  <rect width="84" height="56" rx="4" fill="#243349"/><text x="6" y="48" fill="#E8EEF6">bezel</text></g>
        <g transform="translate(368,0)">  <rect width="84" height="56" rx="4" fill="#5F7A9E"/><text x="6" y="48">bezel-hi</text></g>
        <g transform="translate(460,0)">  <rect width="84" height="56" rx="4" fill="#6EC4FF"/><text x="6" y="48" fill="#04070D">ice</text></g>
        <g transform="translate(552,0)">  <rect width="84" height="56" rx="4" fill="#BFE5FF"/><text x="6" y="48" fill="#04070D">ice-bright</text></g>
        <g transform="translate(644,0)">  <rect width="84" height="56" rx="4" fill="#2A6B96"/><text x="6" y="48">ice-dim</text></g>
        <g transform="translate(736,0)">  <rect width="84" height="56" rx="4" fill="#D4B26A"/><text x="6" y="48" fill="#04070D">gold</text></g>
        <g transform="translate(828,0)">  <rect width="84" height="56" rx="4" fill="#FFB454"/><text x="6" y="48" fill="#04070D">warn-amber</text></g>
        <g transform="translate(920,0)">  <rect width="84" height="56" rx="4" fill="#FF5A6A"/><text x="6" y="48" fill="#04070D">warn-red</text></g>
        <g transform="translate(1012,0)"> <rect width="84" height="56" rx="4" fill="#E8EEF6"/><text x="6" y="48" fill="#04070D">paper</text></g>
        <g transform="translate(1104,0)"> <rect width="84" height="56" rx="4" fill="#7C8AA0"/><text x="6" y="48" fill="#04070D">paper-dim</text></g>
      </g>
    </g>
  </g>

  <!-- =================================================================
       SECTION: PANEL CHROME
       ================================================================= -->
  <g transform="translate(32,212)">
    <text class="hdr-gold" y="0">GLASS  PANEL  ·  9-SLICE  ·  6 px  RADIUS</text>

    <!-- Example glass panel -->
    <g transform="translate(0,18)">
      <!-- shadow -->
      <rect x="3" y="6" width="480" height="200" rx="8" fill="#000" opacity="0.4"/>
      <!-- main panel -->
      <rect width="480" height="200" rx="6" fill="url(#glass)" stroke="#243349"/>
      <!-- top-edge highlight (the "glass" cue) -->
      <path d="M 6 0 H 474 A 6 6 0 0 1 480 6" fill="none" stroke="#5F7A9E" stroke-width="1"/>
      <path d="M 6 1.5 H 474" stroke="#BFE5FF" stroke-width="0.5" opacity="0.5"/>
      <!-- gold inlay strip -->
      <rect x="14" y="14" width="3" height="172" fill="url(#gold)" opacity="0.8"/>
      <!-- header -->
      <text x="32" y="32" class="hdr">Panel · A</text>
      <text x="466" y="32" class="lbl-d" text-anchor="end">9-SLICE  ·  ROUND  6</text>
      <!-- inner rule -->
      <line x1="32" y1="42" x2="466" y2="42" stroke="#243349"/>
      <line x1="32" y1="42" x2="120" y2="42" stroke="#D4B26A" opacity="0.7"/>
      <!-- sample content -->
      <text x="32" y="100" class="big">2,847</text>
      <text x="32" y="124" class="lbl">KILOMETRES  ·  REMAINING</text>
      <!-- pulse dot -->
      <g transform="translate(456,180)" filter="url(#iceglow)"><use href="#pulse-dot"/></g>
    </g>

    <!-- 9-slice key -->
    <g transform="translate(520,18)">
      <text class="lbl" y="-2">9-SLICE  REGIONS  ·  20 px  INSETS</text>
      <g transform="translate(0,8)">
        <rect width="240" height="184" rx="6" fill="#0A1320" stroke="#243349"/>
        <line x1="20" y1="0" x2="20" y2="184" stroke="#6EC4FF" stroke-dasharray="2 3" opacity="0.5"/>
        <line x1="220" y1="0" x2="220" y2="184" stroke="#6EC4FF" stroke-dasharray="2 3" opacity="0.5"/>
        <line x1="0" y1="20" x2="240" y2="20" stroke="#6EC4FF" stroke-dasharray="2 3" opacity="0.5"/>
        <line x1="0" y1="164" x2="240" y2="164" stroke="#6EC4FF" stroke-dasharray="2 3" opacity="0.5"/>
        <text x="8" y="14" class="chip">TL</text>
        <text x="228" y="14" class="chip" text-anchor="end">TR</text>
        <text x="8" y="180" class="chip">BL</text>
        <text x="228" y="180" class="chip" text-anchor="end">BR</text>
        <text x="120" y="14"  class="chip" text-anchor="middle">EDGE  ·  T</text>
        <text x="120" y="180" class="chip" text-anchor="middle">EDGE  ·  B</text>
        <text x="120" y="100" class="lbl-d" text-anchor="middle">CENTER</text>
      </g>
    </g>

    <!-- Brand mark / gold accent samples -->
    <g transform="translate(776,18)">
      <text class="lbl" y="-2">GOLD  ACCENTS</text>
      <g transform="translate(0,8)">
        <rect width="240" height="60" rx="6" fill="url(#glass-soft)" stroke="#243349"/>
        <rect x="14" y="14" width="2" height="32" fill="url(#gold)"/>
        <text x="26" y="28" class="hdr-gold">Capacity Ring</text>
        <text x="26" y="46" class="chip">2 px  ·  inlay  ·  vertical / horizontal</text>
      </g>
      <g transform="translate(0,76)">
        <rect width="240" height="60" rx="6" fill="url(#glass-soft)" stroke="#243349"/>
        <circle cx="34" cy="30" r="14" fill="none" stroke="url(#gold)" stroke-width="2"/>
        <circle cx="34" cy="30" r="3" fill="#D4B26A"/>
        <text x="58" y="28" class="hdr-gold">Brand Disc</text>
        <text x="58" y="46" class="chip">28 px  ·  for screen titles</text>
      </g>
      <g transform="translate(0,144)">
        <rect width="240" height="40" rx="6" fill="url(#glass-soft)" stroke="#243349"/>
        <line x1="14" y1="20" x2="226" y2="20" stroke="#D4B26A" opacity="0.4"/>
        <line x1="14" y1="20" x2="80" y2="20" stroke="#D4B26A"/>
        <text x="226" y="34" class="chip" text-anchor="end">progress  ·  hairline gold</text>
      </g>
    </g>
  </g>

  <!-- =================================================================
       SECTION: BUTTONS & TOGGLES
       ================================================================= -->
  <g transform="translate(32,460)">
    <text class="hdr-gold" y="0">BUTTONS  ·  TOGGLES  ·  INPUT</text>

    <g transform="translate(0,20)">
      <!-- Idle -->
      <g>
        <rect width="156" height="48" rx="6" fill="#0A1320" stroke="#243349"/>
        <text x="78" y="30" class="mono-d" text-anchor="middle">Idle</text>
        <text x="78" y="66" class="chip" text-anchor="middle">btn-idle</text>
      </g>
      <!-- Hover -->
      <g transform="translate(168,0)">
        <rect width="156" height="48" rx="6" fill="#11203A" stroke="#2A6B96"/>
        <text x="78" y="30" class="mono" text-anchor="middle">Hover</text>
        <text x="78" y="66" class="chip" text-anchor="middle">btn-hover</text>
      </g>
      <!-- Active -->
      <g transform="translate(336,0)">
        <rect width="156" height="48" rx="6" fill="#6EC4FF"/>
        <rect width="156" height="2" rx="1" fill="#BFE5FF"/>
        <text x="78" y="30" font-size="13" fill="#04070D" text-anchor="middle" letter-spacing="2" font-weight="600">Engage</text>
        <text x="78" y="66" class="chip" text-anchor="middle">btn-active</text>
      </g>
      <!-- Gold (premium / commit) -->
      <g transform="translate(504,0)">
        <rect width="156" height="48" rx="6" fill="url(#gold)"/>
        <text x="78" y="30" font-size="13" fill="#04070D" text-anchor="middle" letter-spacing="3" font-weight="600">Confirm</text>
        <text x="78" y="66" class="chip" text-anchor="middle">btn-confirm  (gold)</text>
      </g>
      <!-- Warn (soft) -->
      <g transform="translate(672,0)">
        <rect width="156" height="48" rx="6" fill="#0A1320" stroke="#FF5A6A"/>
        <text x="78" y="30" font-size="13" fill="#FF5A6A" text-anchor="middle" letter-spacing="2">Abort</text>
        <text x="78" y="66" class="chip" text-anchor="middle">btn-danger</text>
      </g>
      <!-- Disabled -->
      <g transform="translate(840,0)">
        <rect width="156" height="48" rx="6" fill="#04070D" stroke="#243349" stroke-dasharray="3 3"/>
        <text x="78" y="30" font-size="13" fill="#54627A" text-anchor="middle" letter-spacing="2">Locked</text>
        <text x="78" y="66" class="chip" text-anchor="middle">btn-disabled</text>
      </g>
    </g>

    <!-- Slim toggle switch -->
    <g transform="translate(0,108)">
      <text class="lbl" y="-2">TOGGLE  ·  STEPPER  ·  KNOB</text>

      <g transform="translate(0,8)">
        <!-- off -->
        <rect width="84" height="32" rx="16" fill="#0A1320" stroke="#243349"/>
        <circle cx="18" cy="16" r="11" fill="#54627A"/>
        <text x="0" y="56" class="chip">toggle-off</text>
      </g>
      <g transform="translate(98,8)">
        <rect width="84" height="32" rx="16" fill="#11203A" stroke="#2A6B96"/>
        <circle cx="66" cy="16" r="11" fill="#6EC4FF"/>
        <circle cx="66" cy="16" r="11" fill="#BFE5FF" opacity="0.4"/>
        <text x="0" y="56" class="chip">toggle-on</text>
      </g>

      <!-- stepper -->
      <g transform="translate(208,8)">
        <rect width="180" height="32" rx="6" fill="#0A1320" stroke="#243349"/>
        <line x1="40" y1="0" x2="40" y2="32" stroke="#243349"/>
        <line x1="140" y1="0" x2="140" y2="32" stroke="#243349"/>
        <text x="20" y="22" class="mono" text-anchor="middle">−</text>
        <text x="90" y="22" font-size="12" fill="#E8EEF6" text-anchor="middle" letter-spacing="2">0.85 c</text>
        <text x="160" y="22" class="mono" text-anchor="middle">+</text>
        <text x="0" y="56" class="chip">stepper</text>
      </g>

      <!-- rotary knob -->
      <g transform="translate(412,4)">
        <circle cx="20" cy="20" r="20" fill="url(#alu)"/>
        <circle cx="20" cy="20" r="16" fill="#0A1320"/>
        <circle cx="20" cy="20" r="16" fill="none" stroke="#5F7A9E" opacity="0.6"/>
        <line x1="20" y1="20" x2="20" y2="6" stroke="#6EC4FF" stroke-width="2"/>
        <circle cx="20" cy="20" r="2" fill="#BFE5FF"/>
        <text x="-4" y="56" class="chip">knob  ·  rotary</text>
      </g>

      <!-- slider -->
      <g transform="translate(488,8)">
        <text class="chip" y="-2">SLIDER</text>
        <rect y="14" width="280" height="6" rx="3" fill="#0A1320" stroke="#243349"/>
        <rect y="14" width="180" height="6" rx="3" fill="#6EC4FF"/>
        <g transform="translate(180,17)">
          <circle r="10" fill="#11203A" stroke="#6EC4FF" stroke-width="2"/>
          <circle r="3" fill="#BFE5FF"/>
        </g>
        <text x="0" y="50" class="chip">slider  ·  20 px thumb</text>
      </g>
    </g>
  </g>

  <!-- =================================================================
       SECTION: GAUGES, RINGS, METERS
       ================================================================= -->
  <g transform="translate(32,672)">
    <text class="hdr-gold" y="0">RINGS  ·  ARCS  ·  HAIRLINE  BARS</text>

    <!-- Concentric ring stack -->
    <g transform="translate(0,20)">
      <text class="lbl" y="-2">CAPACITY  RING  ·  240×240</text>
      <g transform="translate(120,124)">
        <!-- outer faint -->
        <circle r="100" fill="none" stroke="#11203A" stroke-width="6"/>
        <!-- ice arc (76%) -->
        <circle r="100" fill="none" stroke="#6EC4FF" stroke-width="6"
                stroke-dasharray="478 628" transform="rotate(-90)"/>
        <!-- inner gold ring -->
        <circle r="78" fill="none" stroke="#D4B26A" stroke-width="1" opacity="0.5"/>
        <!-- centered number -->
        <text class="big-ice" text-anchor="middle" y="10">76</text>
        <text class="lbl" y="34" text-anchor="middle">SHIELDS</text>
        <!-- end-cap dot -->
        <circle cx="100" cy="0" r="4" fill="#BFE5FF" transform="rotate(-90) rotate(274)"/>
      </g>
      <text x="120" y="252" class="chip" text-anchor="middle">ring-cap-240</text>
    </g>

    <!-- 220 deg arc gauge -->
    <g transform="translate(264,20)">
      <text class="lbl" y="-2">ARC  ·  220°  ·  220×220</text>
      <g transform="translate(110,120)">
        <path d="M -68 56 A 88 88 0 1 1 68 56" fill="none" stroke="#11203A" stroke-width="6"/>
        <!-- ticks -->
        <g stroke="#54627A" stroke-width="1">
          <line x1="-68" y1="56" x2="-78" y2="64"/>
          <line x1="-50" y1="-12" x2="-56" y2="-16"/>
          <line x1="0" y1="-32" x2="0" y2="-40"/>
          <line x1="50" y1="-12" x2="56" y2="-16"/>
          <line x1="68" y1="56" x2="78" y2="64"/>
        </g>
        <!-- filled arc 65% -->
        <path d="M -68 56 A 88 88 0 1 1 58 -24" fill="none" stroke="#6EC4FF" stroke-width="6"/>
        <!-- inner gold label ring -->
        <circle r="60" fill="none" stroke="#D4B26A" stroke-width="0.6" opacity="0.5"/>
        <text x="0" y="20" font-size="28" fill="#E8EEF6" text-anchor="middle" font-weight="600">0.65</text>
        <text x="0" y="38" class="chip" text-anchor="middle">QUANTUM  ·  c</text>
      </g>
      <text x="110" y="252" class="chip" text-anchor="middle">arc-220</text>
    </g>

    <!-- Hairline bar -->
    <g transform="translate(508,20)">
      <text class="lbl" y="-2">HAIRLINE  BAR  ·  ICE</text>
      <g transform="translate(0,8)">
        <rect y="14" width="320" height="4" rx="2" fill="#11203A"/>
        <rect y="14" width="220" height="4" rx="2" fill="#6EC4FF"/>
        <text x="0" y="44" class="lbl-d">FUEL  ·  HYDROGEN</text>
        <text x="320" y="44" class="num-d" text-anchor="end">69%</text>

        <rect y="68" width="320" height="4" rx="2" fill="#11203A"/>
        <rect y="68" width="288" height="4" rx="2" fill="#D4B26A"/>
        <text x="0" y="98" class="lbl-d">QUANTUM  ·  FUEL</text>
        <text x="320" y="98" class="num-d" text-anchor="end">90%</text>

        <rect y="122" width="320" height="4" rx="2" fill="#11203A"/>
        <rect y="122" width="64" height="4" rx="2" fill="#FF5A6A"/>
        <text x="0" y="152" class="lbl-d warn">COOLANT  ·  LOW</text>
        <text x="320" y="152" class="num-d warn" text-anchor="end">20%</text>
        <text x="0" y="176" class="chip">bar-hairline  ·  4 px</text>
      </g>
    </g>

    <!-- Vertical hairline columns -->
    <g transform="translate(852,20)">
      <text class="lbl" y="-2">COLUMNS  ·  6 px</text>
      <g transform="translate(0,8)">
        <g><rect width="6" height="180" rx="3" fill="#11203A"/><rect y="60" width="6" height="120" rx="3" fill="#6EC4FF"/></g>
        <g transform="translate(24,0)"><rect width="6" height="180" rx="3" fill="#11203A"/><rect y="20" width="6" height="160" rx="3" fill="#6EC4FF"/></g>
        <g transform="translate(48,0)"><rect width="6" height="180" rx="3" fill="#11203A"/><rect y="100" width="6" height="80" rx="3" fill="#FFB454"/></g>
        <g transform="translate(72,0)"><rect width="6" height="180" rx="3" fill="#11203A"/><rect y="40" width="6" height="140" rx="3" fill="#D4B26A"/></g>
        <g transform="translate(96,0)"><rect width="6" height="180" rx="3" fill="#11203A"/><rect y="150" width="6" height="30" rx="3" fill="#FF5A6A"/></g>
        <text x="0" y="200" class="chip">columns-6  ·  spectrum/multi</text>
      </g>
    </g>
  </g>

  <!-- =================================================================
       SECTION: STATUS / PILLS / ALERTS
       ================================================================= -->
  <g transform="translate(32,968)">
    <text class="hdr-gold" y="0">STATUS  ·  PILLS  ·  ALERTS  ·  TABS</text>

    <!-- pills (rounded, glass) -->
    <g transform="translate(0,20)">
      <g>
        <rect width="120" height="26" rx="13" fill="#11203A" stroke="#2A6B96"/>
        <circle cx="14" cy="13" r="4" fill="#6EC4FF"/>
        <text x="28" y="18" class="mono">Nominal</text>
        <text x="0" y="46" class="chip">pill-ok</text>
      </g>
      <g transform="translate(132,0)">
        <rect width="120" height="26" rx="13" fill="#1B1A12" stroke="#FFB454"/>
        <circle cx="14" cy="13" r="4" fill="#FFB454"/>
        <text x="28" y="18" font-size="12" fill="#FFB454" letter-spacing="1.5">Advisory</text>
        <text x="0" y="46" class="chip">pill-warn</text>
      </g>
      <g transform="translate(264,0)">
        <rect width="120" height="26" rx="13" fill="#1E0F12" stroke="#FF5A6A"/>
        <circle cx="14" cy="13" r="4" fill="#FF5A6A"/>
        <text x="28" y="18" font-size="12" fill="#FF5A6A" letter-spacing="1.5">Caution</text>
        <text x="0" y="46" class="chip">pill-danger</text>
      </g>
      <g transform="translate(396,0)">
        <rect width="120" height="26" rx="13" fill="#0A1320" stroke="#243349"/>
        <circle cx="14" cy="13" r="4" fill="#54627A"/>
        <text x="28" y="18" font-size="12" fill="#54627A" letter-spacing="1.5">Standby</text>
        <text x="0" y="46" class="chip">pill-off</text>
      </g>
    </g>

    <!-- Alert toast -->
    <g transform="translate(540,20)">
      <text class="lbl" y="-2">TOAST  ·  720×56  ·  ALL VARIANTS LEFT-CAPPED</text>
      <g transform="translate(0,8)">
        <rect width="720" height="56" rx="6" fill="url(#glass)" stroke="#243349"/>
        <rect width="4" height="56" fill="#FF5A6A"/>
        <g transform="translate(28,28)" fill="none" stroke="#FF5A6A" stroke-width="1.6">
          <circle r="11"/>
          <line x1="0" y1="-5" x2="0" y2="3"/>
          <circle cy="7" r="1" fill="#FF5A6A" stroke="none"/>
        </g>
        <text x="52" y="26" font-size="13" fill="#E8EEF6" letter-spacing="2">Quantum drive interlock engaged</text>
        <text x="52" y="44" class="chip">Reservoir below 25%  ·  jump unavailable</text>
        <text x="708" y="34" class="chip" text-anchor="end">DISMISS  →</text>
      </g>
    </g>

    <!-- Tab strip -->
    <g transform="translate(0,108)">
      <text class="lbl" y="-2">TAB  STRIP  ·  UNDERLINE  GOLD</text>
      <g transform="translate(0,8)">
        <text x="0" y="20" class="hdr">Navigation</text>
        <text x="160" y="20" class="hdr" fill="#7C8AA0">Comfort</text>
        <text x="290" y="20" class="hdr" fill="#7C8AA0">Sensors</text>
        <text x="430" y="20" class="hdr" fill="#7C8AA0">Salon</text>
        <line x1="0" y1="32" x2="640" y2="32" stroke="#243349"/>
        <line x1="0" y1="32" x2="118" y2="32" stroke="#D4B26A" stroke-width="2"/>
        <text x="0" y="56" class="chip">tab-active  underline-gold  2 px</text>
      </g>
    </g>

    <!-- Breadcrumb / system path -->
    <g transform="translate(700,108)">
      <text class="lbl" y="-2">BREADCRUMB</text>
      <g transform="translate(0,8)" font-size="12" fill="#7C8AA0" letter-spacing="2">
        <text y="20">STANTON</text>
        <text x="84" y="20" fill="#54627A">›</text>
        <text x="96" y="20">HURSTON</text>
        <text x="180" y="20" fill="#54627A">›</text>
        <text x="192" y="20" fill="#E8EEF6">LORVILLE</text>
        <text x="0" y="44" class="chip">breadcrumb</text>
      </g>
    </g>
  </g>

  <!-- =================================================================
       SECTION: READOUTS  /  NUMERIC BLOCKS
       ================================================================= -->
  <g transform="translate(32,1180)">
    <text class="hdr-gold" y="0">READOUTS  ·  NUMERIC  BLOCKS</text>

    <!-- Primary -->
    <g transform="translate(0,20)">
      <text class="lbl" y="-2">PRIMARY  ·  300×120</text>
      <g transform="translate(0,8)">
        <rect width="300" height="120" rx="6" fill="url(#glass)" stroke="#243349"/>
        <path d="M 6 0 H 294 A 6 6 0 0 1 300 6" fill="none" stroke="#5F7A9E"/>
        <rect x="14" y="14" width="2" height="92" fill="#D4B26A" opacity="0.8"/>
        <text x="32" y="34" class="lbl">VELOCITY  ·  m/s</text>
        <text x="32" y="84" class="big">214</text>
        <text x="286" y="84" class="num-d" text-anchor="end">/ 280</text>
        <text x="32" y="108" class="chip">SCM  ·  flight assist on</text>
      </g>
    </g>

    <!-- Compact -->
    <g transform="translate(320,20)">
      <text class="lbl" y="-2">COMPACT  ·  200×80</text>
      <g transform="translate(0,8)">
        <rect width="200" height="80" rx="6" fill="url(#glass)" stroke="#243349"/>
        <path d="M 6 0 H 194 A 6 6 0 0 1 200 6" fill="none" stroke="#5F7A9E"/>
        <text x="14" y="22" class="lbl-d">CABIN  ·  TEMP</text>
        <text x="14" y="58" font-size="28" fill="#E8EEF6" font-weight="300">21.4°</text>
        <text x="186" y="58" font-size="12" fill="#6EC4FF" text-anchor="end">↑ 0.2</text>
      </g>
    </g>

    <!-- Stack -->
    <g transform="translate(540,20)">
      <text class="lbl" y="-2">STACK  ·  200×120</text>
      <g transform="translate(0,8)">
        <rect width="200" height="120" rx="6" fill="url(#glass)" stroke="#243349"/>
        <path d="M 6 0 H 194 A 6 6 0 0 1 200 6" fill="none" stroke="#5F7A9E"/>
        <g transform="translate(14,16)" font-size="11" letter-spacing="2">
          <text fill="#7C8AA0">ALT</text><text x="172" fill="#E8EEF6" text-anchor="end">1.84 km</text>
          <text y="20" fill="#7C8AA0">HDG</text><text x="172" y="20" fill="#E8EEF6" text-anchor="end">142°</text>
          <text y="40" fill="#7C8AA0">PITCH</text><text x="172" y="40" fill="#E8EEF6" text-anchor="end">+08°</text>
          <text y="60" fill="#7C8AA0">ROLL</text><text x="172" y="60" fill="#E8EEF6" text-anchor="end">−02°</text>
          <text y="80" fill="#7C8AA0">G</text><text x="172" y="80" fill="#6EC4FF" text-anchor="end" font-weight="600">1.0</text>
        </g>
      </g>
    </g>

    <!-- Throttle vertical -->
    <g transform="translate(760,20)">
      <text class="lbl" y="-2">THROTTLE  ·  76 px</text>
      <g transform="translate(0,8)">
        <rect width="76" height="120" rx="6" fill="url(#glass)" stroke="#243349"/>
        <line x1="38" y1="14" x2="38" y2="106" stroke="#243349"/>
        <!-- knob -->
        <g transform="translate(38,46)">
          <rect x="-20" y="-8" width="40" height="16" rx="4" fill="#6EC4FF"/>
          <rect x="-20" y="-8" width="40" height="3" rx="2" fill="#BFE5FF"/>
        </g>
        <!-- ticks -->
        <g stroke="#54627A">
          <line x1="14" y1="22"  x2="20" y2="22"/>
          <line x1="14" y1="46"  x2="20" y2="46"/>
          <line x1="14" y1="70"  x2="20" y2="70"/>
          <line x1="14" y1="94"  x2="20" y2="94"/>
        </g>
      </g>
    </g>

    <!-- Gold capacity ring small -->
    <g transform="translate(860,20)">
      <text class="lbl" y="-2">RING  ·  GOLD  76 px</text>
      <g transform="translate(40,68)">
        <circle r="34" fill="none" stroke="#11203A" stroke-width="4"/>
        <circle r="34" fill="none" stroke="#D4B26A" stroke-width="4"
                stroke-dasharray="180 214" transform="rotate(-90)"/>
        <text y="6" font-size="18" fill="#E8EEF6" text-anchor="middle" font-weight="300">84%</text>
      </g>
    </g>
  </g>

  <!-- =================================================================
       SECTION: NAVIGATION  ·  STARMAP  ·  WAYPOINT
       ================================================================= -->
  <g transform="translate(32,1356)">
    <text class="hdr-gold" y="0">NAV  ·  STARMAP  ·  WAYPOINT  ·  RETICLE</text>

    <!-- Starmap orbit -->
    <g transform="translate(0,18)">
      <text class="lbl" y="-2">ORBIT  MAP  ·  240×240</text>
      <g transform="translate(120,124)">
        <!-- star -->
        <circle r="6" fill="#FFB454"/>
        <circle r="6" fill="#FFB454" opacity="0.4" filter="url(#iceglow)"/>
        <!-- orbits -->
        <g fill="none" stroke="#243349">
          <circle r="32"/><circle r="56"/><circle r="84"/><circle r="108"/>
        </g>
        <!-- planets -->
        <circle cx="32" cy="0" r="3" fill="#7C8AA0"/>
        <circle cx="-50" cy="20" r="4" fill="#6EC4FF"/>
        <circle cx="62" cy="-58" r="3.5" fill="#D4B26A"/>
        <circle cx="-92" cy="-58" r="5" fill="#7C8AA0"/>
        <!-- ship position (current) -->
        <g transform="translate(-50,20)">
          <circle r="8" fill="none" stroke="#6EC4FF" stroke-dasharray="2 2"/>
          <circle r="2" fill="#BFE5FF"/>
        </g>
        <!-- planned waypoint -->
        <g transform="translate(62,-58)">
          <polygon points="0,-8 8,0 0,8 -8,0" fill="none" stroke="#D4B26A" stroke-width="1.4"/>
          <circle r="1.5" fill="#D4B26A"/>
        </g>
        <!-- vector line -->
        <line x1="-50" y1="20" x2="62" y2="-58" stroke="#D4B26A" stroke-width="0.6" stroke-dasharray="3 3"/>
      </g>
      <text x="120" y="252" class="chip" text-anchor="middle">starmap-orbit</text>
    </g>

    <!-- Waypoint list -->
    <g transform="translate(264,18)">
      <text class="lbl" y="-2">WAYPOINT  LIST  ·  400×240</text>
      <g transform="translate(0,8)">
        <rect width="400" height="240" rx="6" fill="url(#glass)" stroke="#243349"/>
        <path d="M 6 0 H 394 A 6 6 0 0 1 400 6" fill="none" stroke="#5F7A9E"/>
        <g transform="translate(20,32)" font-size="12" letter-spacing="2">
          <!-- row 1 active -->
          <g>
            <rect x="-8" y="-18" width="376" height="34" rx="4" fill="#11203A"/>
            <rect x="-8" y="-18" width="2" height="34" fill="#D4B26A"/>
            <text fill="#E8EEF6">1  ·  Hurston  ›  Lorville</text>
            <text x="360" fill="#6EC4FF" text-anchor="end">2,847 km</text>
          </g>
          <g transform="translate(0,44)">
            <text fill="#7C8AA0">2  ·  ARC L1  ·  Wallace Klim</text>
            <text x="360" fill="#7C8AA0" text-anchor="end">8.4 Mm</text>
          </g>
          <g transform="translate(0,72)">
            <text fill="#7C8AA0">3  ·  Crusader  ›  Orison</text>
            <text x="360" fill="#7C8AA0" text-anchor="end">62 Mm</text>
          </g>
          <g transform="translate(0,100)">
            <text fill="#7C8AA0">4  ·  microTech  ›  New Babbage</text>
            <text x="360" fill="#7C8AA0" text-anchor="end">112 Mm</text>
          </g>
          <g transform="translate(0,128)">
            <text fill="#54627A">+  add waypoint</text>
          </g>
        </g>
        <line x1="14" y1="220" x2="386" y2="220" stroke="#243349"/>
        <text x="20" y="232" class="chip">TOTAL  ·  4 LEGS  ·  ETA  14 m 22 s</text>
      </g>
    </g>

    <!-- Compass strip -->
    <g transform="translate(680,18)">
      <text class="lbl" y="-2">COMPASS  STRIP  ·  280×60</text>
      <g transform="translate(0,8)">
        <rect width="280" height="60" rx="6" fill="url(#glass)" stroke="#243349"/>
        <g font-size="10" fill="#7C8AA0" letter-spacing="2">
          <text x="20" y="44">120</text>
          <text x="60" y="44">N</text>
          <text x="100" y="44">150</text>
          <text x="140" y="44" fill="#E8EEF6" font-weight="600">142</text>
          <text x="180" y="44">180</text>
          <text x="220" y="44">E</text>
          <text x="260" y="44">240</text>
        </g>
        <!-- ticks -->
        <g stroke="#54627A">
          <line x1="20" y1="20" x2="20" y2="28"/>
          <line x1="60" y1="20" x2="60" y2="32"/>
          <line x1="100" y1="20" x2="100" y2="28"/>
          <line x1="140" y1="14" x2="140" y2="34" stroke="#6EC4FF"/>
          <line x1="180" y1="20" x2="180" y2="28"/>
          <line x1="220" y1="20" x2="220" y2="32"/>
          <line x1="260" y1="20" x2="260" y2="28"/>
        </g>
        <polygon points="140,4 134,-2 146,-2" fill="#6EC4FF" transform="translate(0,8)"/>
      </g>
    </g>

    <!-- Soft reticle -->
    <g transform="translate(984,18)">
      <text class="lbl" y="-2">RETICLE  ·  SOFT</text>
      <g transform="translate(110,118)">
        <circle r="48" fill="none" stroke="#11203A"/>
        <circle r="32" fill="none" stroke="#243349"/>
        <!-- brackets -->
        <g stroke="#6EC4FF" stroke-width="1.4" fill="none">
          <path d="M -54 -42 L -54 -28 M -54 -42 L -40 -42"/>
          <path d="M  54 -42 L  54 -28 M  54 -42 L  40 -42"/>
          <path d="M -54  42 L -54  28 M -54  42 L -40  42"/>
          <path d="M  54  42 L  54  28 M  54  42 L  40  42"/>
        </g>
        <circle r="2" fill="#BFE5FF"/>
        <line x1="-12" y1="0" x2="-4" y2="0" stroke="#6EC4FF"/>
        <line x1="4"  y1="0" x2="12" y2="0" stroke="#6EC4FF"/>
        <line x1="0" y1="-12" x2="0" y2="-4" stroke="#6EC4FF"/>
        <line x1="0" y1="4"  x2="0"  y2="12" stroke="#6EC4FF"/>
      </g>
      <text x="110" y="252" class="chip" text-anchor="middle">reticle-soft</text>
    </g>
  </g>

  <!-- =================================================================
       SECTION: ICONS
       ================================================================= -->
  <g transform="translate(32,1620)">
    <text class="hdr-gold" y="0">ICONS  ·  24×24  ·  HAIRLINE  ICE</text>
    <g transform="translate(0,16)" fill="none" stroke="#BFE5FF" stroke-width="1.2">
      <g><path d="M 12 3 L 21 6 V 14 C 21 19 17 22 12 23 C 7 22 3 19 3 14 V 6 Z"/></g>
      <g transform="translate(36,0)"><circle cx="12" cy="12" r="8"/><line x1="12" y1="2" x2="12" y2="6"/><line x1="12" y1="18" x2="12" y2="22"/><line x1="2" y1="12" x2="6" y2="12"/><line x1="18" y1="12" x2="22" y2="12"/></g>
      <g transform="translate(72,0)"><path d="M 13 2 L 5 13 H 11 L 9 22 L 19 9 H 13 Z"/></g>
      <g transform="translate(108,0)"><path d="M 12 3 C 17 9 21 14 21 17 A 9 9 0 0 1 3 17 C 3 14 7 9 12 3 Z"/></g>
      <g transform="translate(144,0)"><ellipse cx="12" cy="12" rx="10" ry="4"/><ellipse cx="12" cy="12" rx="10" ry="4" transform="rotate(60 12 12)"/><ellipse cx="12" cy="12" rx="10" ry="4" transform="rotate(-60 12 12)"/><circle cx="12" cy="12" r="1.5" fill="#BFE5FF"/></g>
      <g transform="translate(180,0)"><path d="M 3 21 A 18 18 0 0 1 21 3"/><path d="M 8 21 A 13 13 0 0 1 21 8"/><path d="M 13 21 A 8 8 0 0 1 21 13"/><circle cx="4" cy="20" r="1.2" fill="#BFE5FF"/></g>
      <g transform="translate(216,0)"><path d="M 3 17 A 10 10 0 0 1 21 17"/><path d="M 7 17 A 6 6 0 0 1 17 17"/><circle cx="12" cy="17" r="1.5" fill="#BFE5FF"/></g>
      <g transform="translate(252,0)"><rect x="3" y="6" width="18" height="15" rx="2"/><line x1="3" y1="11" x2="21" y2="11"/></g>
      <g transform="translate(288,0)"><rect x="4" y="10" width="16" height="11" rx="1.5"/><path d="M 7 10 V 7 A 5 5 0 0 1 17 7 V 10"/></g>
      <g transform="translate(324,0)"><circle cx="12" cy="12" r="4"/><path d="M 12 3 V 6 M 12 18 V 21 M 3 12 H 6 M 18 12 H 21 M 5.6 5.6 L 7.7 7.7 M 16.3 16.3 L 18.4 18.4 M 5.6 18.4 L 7.7 16.3 M 16.3 7.7 L 18.4 5.6"/></g>
      <g transform="translate(360,0)"><path d="M 12 3 L 21 12 L 12 21 L 3 12 Z"/><circle cx="12" cy="12" r="1.5" fill="#BFE5FF"/></g>
      <g transform="translate(396,0)"><circle cx="12" cy="12" r="9"/><path d="M 12 6 V 12 L 16 14"/></g>
      <g transform="translate(432,0)"><rect x="4" y="5" width="16" height="14" rx="2"/><path d="M 4 9 L 12 14 L 20 9"/></g>
      <g transform="translate(468,0)"><path d="M 6 21 V 11 L 12 5 L 18 11 V 21"/><rect x="10" y="14" width="4" height="7"/></g>
      <g transform="translate(504,0)"><circle cx="12" cy="9" r="4"/><path d="M 4 21 C 4 16 8 14 12 14 C 16 14 20 16 20 21"/></g>
      <g transform="translate(540,0)"><circle cx="12" cy="12" r="9"/><path d="M 8 12 L 11 15 L 16 9"/></g>
    </g>
    <g transform="translate(0,52)" font-size="8" fill="#54627A" letter-spacing="1">
      <text x="12" text-anchor="middle">shield</text>
      <text x="48" text-anchor="middle">target</text>
      <text x="84" text-anchor="middle">power</text>
      <text x="120" text-anchor="middle">fuel</text>
      <text x="156" text-anchor="middle">quantum</text>
      <text x="192" text-anchor="middle">scan</text>
      <text x="228" text-anchor="middle">comms</text>
      <text x="264" text-anchor="middle">cargo</text>
      <text x="300" text-anchor="middle">lock</text>
      <text x="336" text-anchor="middle">systems</text>
      <text x="372" text-anchor="middle">waypoint</text>
      <text x="408" text-anchor="middle">timer</text>
      <text x="444" text-anchor="middle">mail</text>
      <text x="480" text-anchor="middle">home</text>
      <text x="516" text-anchor="middle">crew</text>
      <text x="552" text-anchor="middle">ok</text>
    </g>
  </g>

  <!-- Footer -->
  <g transform="translate(0,1680)">
    <rect width="1280" height="20" fill="#070D17"/>
    <line x1="0" y1="0" x2="1280" y2="0" stroke="#243349"/>
    <line x1="0" y1="0" x2="1280" y2="0" stroke="#D4B26A" opacity="0.4" stroke-dasharray="240 1040"/>
    <text x="32" y="14" class="chip">ORIGIN  ·  LUX  ·  CONCEPT  v0.1  ·  NOT FOR PRODUCTION</text>
    <text x="1248" y="14" class="chip" text-anchor="end">SC-TERM  //  SANNIS</text>
  </g>
</svg>
