<?xml version="1.0" encoding="UTF-8"?>
<svg xmlns="http://www.w3.org/2000/svg" viewBox="0 0 800 1280" width="800" height="1280" font-family="ui-monospace, 'JetBrains Mono', Menlo, Consolas, monospace">
  <!-- =========================================================
       MOCKUP · PILOT MFD (LEFT)  ·  Cutlass Black  ·  800 × 1280
       Drake Military, battle-worn
       ========================================================= -->
  <defs>
    <filter id="grunge" x="-2%" y="-2%" width="104%" height="104%">
      <feTurbulence type="fractalNoise" baseFrequency="0.9" numOctaves="2" seed="11"/>
      <feColorMatrix values="0 0 0 0 0  0 0 0 0 0  0 0 0 0 0  0 0 0 0.07 0"/>
      <feComposite in2="SourceGraphic" operator="in"/>
    </filter>
    <filter id="scuff" x="-2%" y="-2%" width="104%" height="104%">
      <feTurbulence type="turbulence" baseFrequency="0.05 0.6" numOctaves="2" seed="5"/>
      <feColorMatrix values="0 0 0 0 0.78  0 0 0 0 0.72  0 0 0 0 0.61  0 0 0 0.05 0"/>
      <feComposite in2="SourceGraphic" operator="in"/>
    </filter>
    <pattern id="hazard" patternUnits="userSpaceOnUse" width="24" height="12">
      <rect width="24" height="12" fill="#FFB000"/>
      <path d="M -6 12 L 6 0 L 12 0 L 0 12 Z  M 12 12 L 24 0 L 30 0 L 18 12 Z" fill="#0B0807"/>
    </pattern>
    <pattern id="hazard-worn" patternUnits="userSpaceOnUse" width="24" height="12">
      <rect width="24" height="12" fill="#8A3B12"/>
      <path d="M -6 12 L 6 0 L 12 0 L 0 12 Z  M 12 12 L 24 0 L 30 0 L 18 12 Z" fill="#140E0A"/>
    </pattern>
    <radialGradient id="rivet" cx="35%" cy="35%" r="65%">
      <stop offset="0%" stop-color="#7A6B58"/>
      <stop offset="60%" stop-color="#2A1F18"/>
      <stop offset="100%" stop-color="#0B0807"/>
    </radialGradient>
    <symbol id="rv" viewBox="-4 -4 8 8" overflow="visible">
      <circle r="3" fill="url(#rivet)" stroke="#000" stroke-width="0.5"/>
      <circle r="0.8" cx="-0.8" cy="-0.8" fill="#C8B89C" opacity="0.4"/>
    </symbol>
    <style>
      .lbl   { font-size: 11px; fill: #C8B89C; letter-spacing: 2px; }
      .lbl-d { font-size: 10px; fill: #6A5E4E; letter-spacing: 1.5px; }
      .hdr   { font-size: 13px; fill: #FFB000; letter-spacing: 3px; font-weight: 700; }
      .num   { font-size: 22px; fill: #FFB000; font-weight: 700; }
      .big   { font-size: 40px; fill: #FFB000; font-weight: 700; letter-spacing: 1px; }
      .warn  { fill: #FF1F1F; }
    </style>
  </defs>

  <!-- background -->
  <rect width="800" height="1280" fill="#000"/>
  <rect width="800" height="1280" fill="#0B0807" opacity="0.6" filter="url(#grunge)"/>

  <!-- ============== TOP STATUS BAR ============== -->
  <g>
    <rect y="0" width="800" height="56" fill="#140E0A"/>
    <rect y="52" width="800" height="4" fill="url(#hazard)"/>
    <rect y="52" width="800" height="4" fill="#000" opacity="0.3" filter="url(#scuff)"/>
    <!-- left: ship + console -->
    <text x="20" y="22" class="hdr">CUTLASS-BLK · DRK-2947</text>
    <text x="20" y="42" class="lbl-d">CONSOLE · PILOT.MFD.LEFT</text>
    <!-- right: time + signal -->
    <text x="780" y="22" class="hdr" text-anchor="end">T+ 02:14:09</text>
    <g transform="translate(700,32)" fill="#FFB000">
      <rect x="0" y="6" width="3" height="6"/>
      <rect x="6" y="3" width="3" height="9"/>
      <rect x="12" y="0" width="3" height="12"/>
      <rect x="18" y="-3" width="3" height="15" fill="#7A5400"/>
    </g>
    <text x="780" y="42" class="lbl-d" text-anchor="end">LINK · STANTON</text>
  </g>

  <!-- ============== SHIELD QUADRANTS PANEL ============== -->
  <g transform="translate(20,76)">
    <rect width="760" height="280" fill="#0B0807" stroke="#2A1F18"/>
    <rect width="760" height="4" fill="url(#hazard-worn)"/>
    <text x="14" y="24" class="hdr">SHIELD INTEGRITY</text>
    <text x="746" y="24" class="lbl-d" text-anchor="end">MJ / SECTOR</text>
    <use href="#rv" x="10" y="10"/><use href="#rv" x="750" y="10"/>
    <use href="#rv" x="10" y="270"/><use href="#rv" x="750" y="270"/>

    <!-- center silhouette + quadrants -->
    <g transform="translate(380,160)">
      <!-- quadrant arcs -->
      <path d="M 0 0 L 0 -110 A 110 110 0 0 1 110 0 Z" fill="#FFB000" opacity="0.55" stroke="#7A5400"/>
      <path d="M 0 0 L 110 0 A 110 110 0 0 1 0 110 Z" fill="#FFB000" opacity="0.28" stroke="#7A5400"/>
      <path d="M 0 0 L 0 110 A 110 110 0 0 1 -110 0 Z" fill="#FF1F1F" opacity="0.55" stroke="#7A0F0F"/>
      <path d="M 0 0 L -110 0 A 110 110 0 0 1 0 -110 Z" fill="#FFB000" opacity="0.75" stroke="#7A5400"/>
      <!-- Cutlass silhouette (very abstract top-down) -->
      <g fill="#0B0807" stroke="#5A4636" stroke-width="1">
        <path d="M 0 -42 L 8 -20 L 22 -8 L 28 6 L 22 24 L 10 36 L 0 42 L -10 36 L -22 24 L -28 6 L -22 -8 L -8 -20 Z"/>
        <path d="M -34 -4 L -22 -8 L -28 6 L -36 8 Z"/>
        <path d="M  34 -4 L  22 -8 L  28 6 L  36 8 Z"/>
      </g>
    </g>

    <!-- quadrant readouts -->
    <g font-weight="700">
      <g transform="translate(380,38)" text-anchor="middle">
        <text class="lbl-d" y="0">FORE</text>
        <text class="num" y="22">84</text>
      </g>
      <g transform="translate(620,168)" text-anchor="middle">
        <text class="lbl-d" y="0">STBD</text>
        <text class="num" y="22">41</text>
      </g>
      <g transform="translate(380,272)" text-anchor="middle">
        <text class="lbl-d warn" y="0">AFT</text>
        <text class="num warn" y="22">12</text>
      </g>
      <g transform="translate(140,168)" text-anchor="middle">
        <text class="lbl-d" y="0">PORT</text>
        <text class="num" y="22">96</text>
      </g>
    </g>

    <!-- regen + balance buttons -->
    <g transform="translate(14,238)">
      <rect width="120" height="32" fill="#1C140E" stroke="#7A5400"/>
      <text x="60" y="22" font-size="12" fill="#FFB000" text-anchor="middle" letter-spacing="2">BALANCE</text>
    </g>
    <g transform="translate(140,238)">
      <rect width="120" height="32" fill="#1C140E" stroke="#7A5400"/>
      <text x="60" y="22" font-size="12" fill="#FFB000" text-anchor="middle" letter-spacing="2">RESET</text>
    </g>
    <g transform="translate(626,238)">
      <rect width="120" height="32" fill="#3A0808" stroke="#FF1F1F"/>
      <text x="60" y="22" font-size="12" fill="#FF1F1F" text-anchor="middle" letter-spacing="2" font-weight="700">DROP</text>
    </g>
  </g>

  <!-- ============== POWER TRIANGLE + RADAR ROW ============== -->
  <g transform="translate(20,376)">
    <!-- POWER TRIANGLE PANEL -->
    <g>
      <rect width="370" height="320" fill="#0B0807" stroke="#2A1F18"/>
      <rect width="370" height="4" fill="url(#hazard-worn)"/>
      <text x="14" y="24" class="hdr">POWER DIST</text>
      <text x="356" y="24" class="lbl-d" text-anchor="end">100%</text>
      <use href="#rv" x="10" y="10"/><use href="#rv" x="360" y="10"/>
      <use href="#rv" x="10" y="310"/><use href="#rv" x="360" y="310"/>

      <g transform="translate(185,180)">
        <polygon points="0,-110 100,60 -100,60" fill="none" stroke="#2A1F18"/>
        <polygon points="0,-74 68,40 -68,40" fill="none" stroke="#1C140E"/>
        <polygon points="0,-38 36,20 -36,20" fill="none" stroke="#1C140E"/>
        <polygon points="28,-40 78,52 -58,32" fill="#FFB000" opacity="0.25" stroke="#FFB000"/>
        <circle cx="28" cy="-40" r="5" fill="#FFB000"/>
        <text x="0" y="-122" font-size="11" fill="#C8B89C" text-anchor="middle" letter-spacing="2">WEAPONS</text>
        <text x="-116" y="78" font-size="11" fill="#C8B89C" text-anchor="middle" letter-spacing="2">ENGINES</text>
        <text x="116" y="78" font-size="11" fill="#C8B89C" text-anchor="middle" letter-spacing="2">SHIELDS</text>
      </g>

      <g font-size="11" fill="#FFB000" font-weight="700">
        <text x="14" y="296">W 140%</text>
        <text x="185" y="296" text-anchor="middle" fill="#7A5400">E 80%</text>
        <text x="356" y="296" text-anchor="end" fill="#7A5400">S 80%</text>
      </g>
    </g>

    <!-- RADAR PANEL -->
    <g transform="translate(390,0)">
      <rect width="370" height="320" fill="#0B0807" stroke="#2A1F18"/>
      <rect width="370" height="4" fill="url(#hazard-worn)"/>
      <text x="14" y="24" class="hdr">RADAR · 12 km</text>
      <text x="356" y="24" class="lbl-d" text-anchor="end">CONTACTS 04</text>
      <use href="#rv" x="10" y="10"/><use href="#rv" x="360" y="10"/>
      <use href="#rv" x="10" y="310"/><use href="#rv" x="360" y="310"/>

      <g transform="translate(185,178)">
        <circle r="138" fill="#000" stroke="#2A1F18"/>
        <circle r="104" fill="none" stroke="#1C140E"/>
        <circle r="70"  fill="none" stroke="#1C140E"/>
        <circle r="36"  fill="none" stroke="#1C140E"/>
        <line x1="-138" y1="0" x2="138" y2="0" stroke="#1C140E"/>
        <line x1="0" y1="-138" x2="0" y2="138" stroke="#1C140E"/>
        <!-- sweep -->
        <path d="M 0 0 L 0 -138 A 138 138 0 0 1 124 -60 Z" fill="#FFB000" opacity="0.15"/>
        <line x1="0" y1="0" x2="124" y2="-60" stroke="#FFB000" stroke-width="1.5"/>
        <!-- contacts -->
        <g>
          <circle cx="44" cy="-26" r="3" fill="#FFB000"/>
          <text x="50" y="-22" font-size="9" fill="#FFB000">CARGO</text>
          <circle cx="-68" cy="22" r="3" fill="#FFB000"/>
          <text x="-62" y="26" font-size="9" fill="#FFB000">CIV</text>
          <circle cx="84" cy="68" r="4" fill="#FF1F1F"/>
          <text x="90" y="72" font-size="9" fill="#FF1F1F" font-weight="700">HOSTILE</text>
          <polygon points="0,-122 -5,-110 5,-110" fill="#3FB6C8"/>
          <text x="6" y="-110" font-size="9" fill="#3FB6C8">WP</text>
        </g>
        <circle r="3" fill="none" stroke="#FFB000"/>
      </g>

      <!-- zoom controls -->
      <g transform="translate(14,288)">
        <rect width="40" height="24" fill="#1C140E" stroke="#5A4636"/>
        <text x="20" y="17" font-size="12" fill="#FFB000" text-anchor="middle">−</text>
        <rect x="46" width="40" height="24" fill="#1C140E" stroke="#5A4636"/>
        <text x="66" y="17" font-size="12" fill="#FFB000" text-anchor="middle">+</text>
      </g>
      <text x="356" y="304" class="lbl-d" text-anchor="end" font-size="9">SCAN · PASSIVE</text>
    </g>
  </g>

  <!-- ============== WEAPONS PANEL ============== -->
  <g transform="translate(20,716)">
    <rect width="760" height="220" fill="#0B0807" stroke="#2A1F18"/>
    <rect width="760" height="4" fill="url(#hazard-worn)"/>
    <text x="14" y="24" class="hdr">WEAPONS · GROUP 1</text>
    <text x="746" y="24" class="lbl-d" text-anchor="end">CONVERGE 850m</text>
    <use href="#rv" x="10" y="10"/><use href="#rv" x="750" y="10"/>
    <use href="#rv" x="10" y="210"/><use href="#rv" x="750" y="210"/>

    <!-- four weapon slots -->
    <g transform="translate(20,44)">
      <g>
        <rect width="170" height="156" fill="#140E0A" stroke="#3A2C20"/>
        <text x="10" y="20" class="lbl-d">PILOT · NOSE L</text>
        <text x="10" y="50" font-size="14" fill="#FFB000" font-weight="700">CF-227 PANTHER</text>
        <!-- ammo bar -->
        <rect x="10" y="64" width="150" height="10" fill="#1C140E" stroke="#3A2C20"/>
        <rect x="10" y="64" width="118" height="10" fill="#FFB000"/>
        <text x="10" y="92" class="lbl-d">HEAT</text>
        <rect x="10" y="100" width="150" height="10" fill="#1C140E" stroke="#3A2C20"/>
        <rect x="10" y="100" width="60" height="10" fill="#FFB000"/>
        <text x="10" y="132" font-size="11" fill="#FFB000">READY</text>
        <circle cx="156" cy="128" r="5" fill="#FFB000"/>
      </g>
      <g transform="translate(178,0)">
        <rect width="170" height="156" fill="#140E0A" stroke="#3A2C20"/>
        <text x="10" y="20" class="lbl-d">PILOT · NOSE R</text>
        <text x="10" y="50" font-size="14" fill="#FFB000" font-weight="700">CF-227 PANTHER</text>
        <rect x="10" y="64" width="150" height="10" fill="#1C140E" stroke="#3A2C20"/>
        <rect x="10" y="64" width="124" height="10" fill="#FFB000"/>
        <text x="10" y="92" class="lbl-d">HEAT</text>
        <rect x="10" y="100" width="150" height="10" fill="#1C140E" stroke="#3A2C20"/>
        <rect x="10" y="100" width="64" height="10" fill="#FFB000"/>
        <text x="10" y="132" font-size="11" fill="#FFB000">READY</text>
        <circle cx="156" cy="128" r="5" fill="#FFB000"/>
      </g>
      <g transform="translate(356,0)">
        <rect width="170" height="156" fill="#140E0A" stroke="#3A2C20"/>
        <text x="10" y="20" class="lbl-d">WING · L</text>
        <text x="10" y="50" font-size="14" fill="#FFB000" font-weight="700">SW-16 SLEDGE</text>
        <rect x="10" y="64" width="150" height="10" fill="#1C140E" stroke="#3A2C20"/>
        <rect x="10" y="64" width="142" height="10" fill="#FFB000"/>
        <text x="10" y="92" class="lbl-d warn">HEAT · OVER</text>
        <rect x="10" y="100" width="150" height="10" fill="#1C140E" stroke="#3A2C20"/>
        <rect x="10" y="100" width="136" height="10" fill="#FF1F1F"/>
        <text x="10" y="132" font-size="11" fill="#FF1F1F" font-weight="700">COOLING</text>
        <circle cx="156" cy="128" r="5" fill="#FF1F1F"/>
      </g>
      <g transform="translate(534,0)">
        <rect width="170" height="156" fill="#140E0A" stroke="#3A2C20"/>
        <text x="10" y="20" class="lbl-d">WING · R</text>
        <text x="10" y="50" font-size="14" fill="#FFB000" font-weight="700">SW-16 SLEDGE</text>
        <rect x="10" y="64" width="150" height="10" fill="#1C140E" stroke="#3A2C20"/>
        <rect x="10" y="64" width="140" height="10" fill="#FFB000"/>
        <text x="10" y="92" class="lbl-d">HEAT</text>
        <rect x="10" y="100" width="150" height="10" fill="#1C140E" stroke="#3A2C20"/>
        <rect x="10" y="100" width="96" height="10" fill="#FFB000"/>
        <text x="10" y="132" font-size="11" fill="#FFB000">READY</text>
        <circle cx="156" cy="128" r="5" fill="#FFB000"/>
      </g>
    </g>
  </g>

  <!-- ============== FLIGHT TELEMETRY + MISSILES ============== -->
  <g transform="translate(20,956)">
    <!-- Telemetry -->
    <g>
      <rect width="500" height="240" fill="#0B0807" stroke="#2A1F18"/>
      <rect width="500" height="4" fill="url(#hazard-worn)"/>
      <text x="14" y="24" class="hdr">FLIGHT TELEMETRY</text>
      <use href="#rv" x="10" y="10"/><use href="#rv" x="490" y="10"/>
      <use href="#rv" x="10" y="230"/><use href="#rv" x="490" y="230"/>

      <!-- big speed -->
      <g transform="translate(20,80)">
        <text class="lbl-d" y="0">SPEED  m/s</text>
        <text class="big" y="48">214</text>
        <text x="138" y="42" font-size="14" fill="#7A5400">/ 280</text>
        <!-- throttle bar -->
        <rect x="0" y="60" width="220" height="10" fill="#1C140E" stroke="#3A2C20"/>
        <rect x="0" y="60" width="168" height="10" fill="#FFB000"/>
        <text x="0" y="92" class="lbl-d">THROTTLE  76%</text>
      </g>

      <!-- attitude / G -->
      <g transform="translate(260,80)">
        <text class="lbl-d" y="0">G-LOAD</text>
        <text class="big warn" y="48">6.2</text>
        <text class="lbl-d" x="0" y="84">ALT  1.84 km</text>
        <text class="lbl-d" x="0" y="104">HDG  142°</text>
        <text class="lbl-d" x="0" y="124">PITCH +08°</text>
      </g>

      <!-- mode pills -->
      <g transform="translate(20,210)">
        <rect width="80" height="20" fill="#FFB000"/>
        <text x="40" y="14" font-size="11" fill="#0B0807" font-weight="700" text-anchor="middle">SCM</text>
        <g transform="translate(88,0)">
          <rect width="80" height="20" fill="#1C140E" stroke="#5A4636"/>
          <text x="40" y="14" font-size="11" fill="#7A5400" text-anchor="middle">CRUISE</text>
        </g>
        <g transform="translate(176,0)">
          <rect width="80" height="20" fill="#1C140E" stroke="#5A4636"/>
          <text x="40" y="14" font-size="11" fill="#7A5400" text-anchor="middle">PRECISION</text>
        </g>
      </g>
    </g>

    <!-- Missiles -->
    <g transform="translate(520,0)">
      <rect width="260" height="240" fill="#0B0807" stroke="#2A1F18"/>
      <rect width="260" height="4" fill="url(#hazard-worn)"/>
      <text x="14" y="24" class="hdr">MISSILES</text>
      <use href="#rv" x="10" y="10"/><use href="#rv" x="250" y="10"/>
      <use href="#rv" x="10" y="230"/><use href="#rv" x="250" y="230"/>

      <g transform="translate(14,40)">
        <text class="lbl-d" y="0">RACK · STARFARER</text>
        <text font-size="18" fill="#FFB000" font-weight="700" y="22">4 × ARRESTOR III</text>
      </g>
      <!-- missile pips -->
      <g transform="translate(20,90)">
        <g>
          <rect width="50" height="60" fill="#1C140E" stroke="#7A5400"/>
          <path d="M 25 8 L 36 50 L 25 44 L 14 50 Z" fill="#FFB000"/>
          <text x="25" y="76" font-size="10" fill="#FFB000" text-anchor="middle">01</text>
        </g>
        <g transform="translate(58,0)">
          <rect width="50" height="60" fill="#1C140E" stroke="#7A5400"/>
          <path d="M 25 8 L 36 50 L 25 44 L 14 50 Z" fill="#FFB000"/>
          <text x="25" y="76" font-size="10" fill="#FFB000" text-anchor="middle">02</text>
        </g>
        <g transform="translate(116,0)">
          <rect width="50" height="60" fill="#1C140E" stroke="#3A2C20"/>
          <path d="M 25 8 L 36 50 L 25 44 L 14 50 Z" fill="#3A2C20"/>
          <text x="25" y="76" font-size="10" fill="#5A4636" text-anchor="middle">03</text>
        </g>
        <g transform="translate(174,0)">
          <rect width="50" height="60" fill="#1C140E" stroke="#3A2C20"/>
          <path d="M 25 8 L 36 50 L 25 44 L 14 50 Z" fill="#3A2C20"/>
          <text x="25" y="76" font-size="10" fill="#5A4636" text-anchor="middle">04</text>
        </g>
      </g>
      <g transform="translate(14,196)">
        <rect width="232" height="28" fill="#3A0808" stroke="#FF1F1F"/>
        <text x="116" y="20" font-size="12" fill="#FF1F1F" font-weight="700" text-anchor="middle" letter-spacing="2">ARM · LOCK · FIRE</text>
      </g>
    </g>
  </g>

  <!-- ============== ALERT BANNER ============== -->
  <g transform="translate(20,1216)">
    <rect width="760" height="40" fill="#3A0808" stroke="#FF1F1F"/>
    <rect width="760" height="4" fill="url(#hazard)"/>
    <rect y="36" width="760" height="4" fill="url(#hazard)"/>
    <g transform="translate(22,20)">
      <polygon points="0,-10 10,8 -10,8" fill="#FF1F1F" stroke="#FFB000" stroke-width="1"/>
      <text y="6" font-size="11" fill="#0B0807" font-weight="700" text-anchor="middle">!</text>
    </g>
    <text x="44" y="26" font-size="14" fill="#FF1F1F" font-weight="700" letter-spacing="2">AFT SHIELD CRITICAL · MANEUVER RECOMMENDED</text>
  </g>

  <!-- bottom band -->
  <g transform="translate(0,1262)">
    <rect width="800" height="18" fill="#140E0A"/>
    <rect width="800" height="2" fill="url(#hazard-worn)"/>
  </g>

  <!-- light global grunge overlay -->
  <rect width="800" height="1280" fill="#C8B89C" opacity="0.025" filter="url(#scuff)" pointer-events="none"/>
</svg>
